<svg xmlns="http://www.w3.org/2000/svg" viewBox="0 0 1200 750" width="1200" height="750" role="img" aria-label="Rep vs Real Yeezy 350 V2 — What Actually Differs">
<defs>
<radialGradient id="glow" cx="55.2%" cy="52.0%" r="60%"><stop offset="0%" stop-color="#d8ff3e" stop-opacity="0.30"/><stop offset="45%" stop-color="#d8ff3e" stop-opacity="0.05"/><stop offset="100%" stop-color="#d8ff3e" stop-opacity="0"/></radialGradient>
<filter id="grain"><feTurbulence type="fractalNoise" baseFrequency="0.9" numOctaves="2" stitchTiles="stitch"/><feColorMatrix type="saturate" values="0"/><feComponentTransfer><feFuncA type="linear" slope="0.05"/></feComponentTransfer></filter>
<linearGradient id="vig" x1="0" y1="0" x2="0" y2="1"><stop offset="0%" stop-color="#000" stop-opacity="0"/><stop offset="100%" stop-color="#000" stop-opacity="0.55"/></linearGradient>
</defs>
<rect width="1200" height="750" fill="#0a0a0b"/>
<rect width="1200" height="750" fill="url(#glow)"/>
<circle cx="428" cy="60" r="1.1" fill="#d8ff3e" opacity="0.051"/><circle cx="474" cy="60" r="1.2" fill="#d8ff3e" opacity="0.078"/><circle cx="520" cy="60" r="1.3" fill="#d8ff3e" opacity="0.101"/><circle cx="566" cy="60" r="1.3" fill="#d8ff3e" opacity="0.118"/><circle cx="612" cy="60" r="1.3" fill="#d8ff3e" opacity="0.129"/><circle cx="658" cy="60" r="1.3" fill="#d8ff3e" opacity="0.133"/><circle cx="704" cy="60" r="1.3" fill="#d8ff3e" opacity="0.130"/><circle cx="750" cy="60" r="1.3" fill="#d8ff3e" opacity="0.121"/><circle cx="796" cy="60" r="1.3" fill="#d8ff3e" opacity="0.104"/><circle cx="842" cy="60" r="1.2" fill="#d8ff3e" opacity="0.082"/><circle cx="888" cy="60" r="1.1" fill="#d8ff3e" opacity="0.056"/><circle cx="934" cy="60" r="1.1" fill="#d8ff3e" opacity="0.025"/><circle cx="382" cy="106" r="1.1" fill="#d8ff3e" opacity="0.057"/><circle cx="428" cy="106" r="1.2" fill="#d8ff3e" opacity="0.091"/><circle cx="474" cy="106" r="1.3" fill="#d8ff3e" opacity="0.122"/><circle cx="520" cy="106" r="1.4" fill="#d8ff3e" opacity="0.147"/><circle cx="566" cy="106" r="1.4" fill="#d8ff3e" opacity="0.167"/><circle cx="612" cy="106" r="1.4" fill="#d8ff3e" opacity="0.180"/><circle cx="658" cy="106" r="1.5" fill="#d8ff3e" opacity="0.184"/><circle cx="704" cy="106" r="1.5" fill="#d8ff3e" opacity="0.181"/><circle cx="750" cy="106" r="1.4" fill="#d8ff3e" opacity="0.170"/><circle cx="796" cy="106" r="1.4" fill="#d8ff3e" opacity="0.151"/><circle cx="842" cy="106" r="1.3" fill="#d8ff3e" opacity="0.126"/><circle cx="888" cy="106" r="1.2" fill="#d8ff3e" opacity="0.097"/><circle cx="934" cy="106" r="1.2" fill="#d8ff3e" opacity="0.063"/><circle cx="980" cy="106" r="1.1" fill="#d8ff3e" opacity="0.026"/><circle cx="336" cy="152" r="1.1" fill="#d8ff3e" opacity="0.052"/><circle cx="382" cy="152" r="1.2" fill="#d8ff3e" opacity="0.092"/><circle cx="428" cy="152" r="1.3" fill="#d8ff3e" opacity="0.129"/><circle cx="474" cy="152" r="1.4" fill="#d8ff3e" opacity="0.163"/><circle cx="520" cy="152" r="1.5" fill="#d8ff3e" opacity="0.192"/><circle cx="566" cy="152" r="1.5" fill="#d8ff3e" opacity="0.215"/><circle cx="612" cy="152" r="1.6" fill="#d8ff3e" opacity="0.230"/><circle cx="658" cy="152" r="1.6" fill="#d8ff3e" opacity="0.236"/><circle cx="704" cy="152" r="1.6" fill="#d8ff3e" opacity="0.231"/><circle cx="750" cy="152" r="1.5" fill="#d8ff3e" opacity="0.218"/><circle cx="796" cy="152" r="1.5" fill="#d8ff3e" opacity="0.197"/><circle cx="842" cy="152" r="1.4" fill="#d8ff3e" opacity="0.168"/><circle cx="888" cy="152" r="1.3" fill="#d8ff3e" opacity="0.135"/><circle cx="934" cy="152" r="1.2" fill="#d8ff3e" opacity="0.098"/><circle cx="980" cy="152" r="1.1" fill="#d8ff3e" opacity="0.059"/><circle cx="290" cy="198" r="1.1" fill="#d8ff3e" opacity="0.035"/><circle cx="336" cy="198" r="1.2" fill="#d8ff3e" opacity="0.080"/><circle cx="382" cy="198" r="1.3" fill="#d8ff3e" opacity="0.123"/><circle cx="428" cy="198" r="1.4" fill="#d8ff3e" opacity="0.164"/><circle cx="474" cy="198" r="1.5" fill="#d8ff3e" opacity="0.201"/><circle cx="520" cy="198" r="1.6" fill="#d8ff3e" opacity="0.235"/><circle cx="566" cy="198" r="1.7" fill="#d8ff3e" opacity="0.261"/><circle cx="612" cy="198" r="1.7" fill="#d8ff3e" opacity="0.280"/><circle cx="658" cy="198" r="1.7" fill="#d8ff3e" opacity="0.287"/><circle cx="704" cy="198" r="1.7" fill="#d8ff3e" opacity="0.282"/><circle cx="750" cy="198" r="1.7" fill="#d8ff3e" opacity="0.265"/><circle cx="796" cy="198" r="1.6" fill="#d8ff3e" opacity="0.240"/><circle cx="842" cy="198" r="1.5" fill="#d8ff3e" opacity="0.208"/><circle cx="888" cy="198" r="1.4" fill="#d8ff3e" opacity="0.171"/><circle cx="934" cy="198" r="1.3" fill="#d8ff3e" opacity="0.130"/><circle cx="980" cy="198" r="1.2" fill="#d8ff3e" opacity="0.087"/><circle cx="1026" cy="198" r="1.1" fill="#d8ff3e" opacity="0.043"/><circle cx="290" cy="244" r="1.1" fill="#d8ff3e" opacity="0.056"/><circle cx="336" cy="244" r="1.3" fill="#d8ff3e" opacity="0.103"/><circle cx="382" cy="244" r="1.4" fill="#d8ff3e" opacity="0.149"/><circle cx="428" cy="244" r="1.5" fill="#d8ff3e" opacity="0.194"/><circle cx="474" cy="244" r="1.6" fill="#d8ff3e" opacity="0.236"/><circle cx="520" cy="244" r="1.7" fill="#d8ff3e" opacity="0.274"/><circle cx="566" cy="244" r="1.8" fill="#d8ff3e" opacity="0.306"/><circle cx="612" cy="244" r="1.8" fill="#d8ff3e" opacity="0.329"/><circle cx="658" cy="244" r="1.8" fill="#d8ff3e" opacity="0.338"/><circle cx="704" cy="244" r="1.8" fill="#d8ff3e" opacity="0.331"/><circle cx="750" cy="244" r="1.8" fill="#d8ff3e" opacity="0.311"/><circle cx="796" cy="244" r="1.7" fill="#d8ff3e" opacity="0.280"/><circle cx="842" cy="244" r="1.6" fill="#d8ff3e" opacity="0.242"/><circle cx="888" cy="244" r="1.5" fill="#d8ff3e" opacity="0.201"/><circle cx="934" cy="244" r="1.4" fill="#d8ff3e" opacity="0.157"/><circle cx="980" cy="244" r="1.3" fill="#d8ff3e" opacity="0.111"/><circle cx="1026" cy="244" r="1.2" fill="#d8ff3e" opacity="0.064"/><circle cx="244" cy="290" r="1.1" fill="#d8ff3e" opacity="0.022"/><circle cx="290" cy="290" r="1.2" fill="#d8ff3e" opacity="0.072"/><circle cx="336" cy="290" r="1.3" fill="#d8ff3e" opacity="0.121"/><circle cx="382" cy="290" r="1.4" fill="#d8ff3e" opacity="0.170"/><circle cx="428" cy="290" r="1.5" fill="#d8ff3e" opacity="0.217"/><circle cx="474" cy="290" r="1.7" fill="#d8ff3e" opacity="0.263"/><circle cx="520" cy="290" r="1.8" fill="#d8ff3e" opacity="0.307"/><circle cx="566" cy="290" r="1.9" fill="#d8ff3e" opacity="0.346"/><circle cx="612" cy="290" r="1.9" fill="#d8ff3e" opacity="0.376"/><circle cx="658" cy="290" r="2.0" fill="#d8ff3e" opacity="0.389"/><circle cx="704" cy="290" r="1.9" fill="#d8ff3e" opacity="0.379"/><circle cx="750" cy="290" r="1.9" fill="#d8ff3e" opacity="0.352"/><circle cx="796" cy="290" r="1.8" fill="#d8ff3e" opacity="0.314"/><circle cx="842" cy="290" r="1.7" fill="#d8ff3e" opacity="0.271"/><circle cx="888" cy="290" r="1.6" fill="#d8ff3e" opacity="0.225"/><circle cx="934" cy="290" r="1.4" fill="#d8ff3e" opacity="0.178"/><circle cx="980" cy="290" r="1.3" fill="#d8ff3e" opacity="0.130"/><circle cx="1026" cy="290" r="1.2" fill="#d8ff3e" opacity="0.081"/><circle cx="1072" cy="290" r="1.1" fill="#d8ff3e" opacity="0.031"/><circle cx="244" cy="336" r="1.1" fill="#d8ff3e" opacity="0.032"/><circle cx="290" cy="336" r="1.2" fill="#d8ff3e" opacity="0.082"/><circle cx="336" cy="336" r="1.3" fill="#d8ff3e" opacity="0.133"/><circle cx="382" cy="336" r="1.5" fill="#d8ff3e" opacity="0.183"/><circle cx="428" cy="336" r="1.6" fill="#d8ff3e" opacity="0.233"/><circle cx="474" cy="336" r="1.7" fill="#d8ff3e" opacity="0.283"/><circle cx="520" cy="336" r="1.8" fill="#d8ff3e" opacity="0.331"/><circle cx="566" cy="336" r="1.9" fill="#d8ff3e" opacity="0.378"/><circle cx="612" cy="336" r="2.0" fill="#d8ff3e" opacity="0.418"/><circle cx="658" cy="336" r="2.1" fill="#d8ff3e" opacity="0.440"/><circle cx="704" cy="336" r="2.1" fill="#d8ff3e" opacity="0.424"/><circle cx="750" cy="336" r="2.0" fill="#d8ff3e" opacity="0.385"/><circle cx="796" cy="336" r="1.8" fill="#d8ff3e" opacity="0.339"/><circle cx="842" cy="336" r="1.7" fill="#d8ff3e" opacity="0.291"/><circle cx="888" cy="336" r="1.6" fill="#d8ff3e" opacity="0.242"/><circle cx="934" cy="336" r="1.5" fill="#d8ff3e" opacity="0.192"/><circle cx="980" cy="336" r="1.4" fill="#d8ff3e" opacity="0.142"/><circle cx="1026" cy="336" r="1.2" fill="#d8ff3e" opacity="0.091"/><circle cx="1072" cy="336" r="1.1" fill="#d8ff3e" opacity="0.041"/><circle cx="244" cy="382" r="1.1" fill="#d8ff3e" opacity="0.035"/><circle cx="290" cy="382" r="1.2" fill="#d8ff3e" opacity="0.087"/><circle cx="336" cy="382" r="1.3" fill="#d8ff3e" opacity="0.138"/><circle cx="382" cy="382" r="1.5" fill="#d8ff3e" opacity="0.189"/><circle cx="428" cy="382" r="1.6" fill="#d8ff3e" opacity="0.240"/><circle cx="474" cy="382" r="1.7" fill="#d8ff3e" opacity="0.291"/><circle cx="520" cy="382" r="1.9" fill="#d8ff3e" opacity="0.342"/><circle cx="566" cy="382" r="2.0" fill="#d8ff3e" opacity="0.393"/><circle cx="612" cy="382" r="2.1" fill="#d8ff3e" opacity="0.444"/><circle cx="658" cy="382" r="2.2" fill="#d8ff3e" opacity="0.490"/><circle cx="704" cy="382" r="2.1" fill="#d8ff3e" opacity="0.452"/><circle cx="750" cy="382" r="2.0" fill="#d8ff3e" opacity="0.402"/><circle cx="796" cy="382" r="1.9" fill="#d8ff3e" opacity="0.351"/><circle cx="842" cy="382" r="1.7" fill="#d8ff3e" opacity="0.300"/><circle cx="888" cy="382" r="1.6" fill="#d8ff3e" opacity="0.249"/><circle cx="934" cy="382" r="1.5" fill="#d8ff3e" opacity="0.198"/><circle cx="980" cy="382" r="1.4" fill="#d8ff3e" opacity="0.147"/><circle cx="1026" cy="382" r="1.2" fill="#d8ff3e" opacity="0.095"/><circle cx="1072" cy="382" r="1.1" fill="#d8ff3e" opacity="0.044"/><circle cx="244" cy="428" r="1.1" fill="#d8ff3e" opacity="0.034"/><circle cx="290" cy="428" r="1.2" fill="#d8ff3e" opacity="0.085"/><circle cx="336" cy="428" r="1.3" fill="#d8ff3e" opacity="0.135"/><circle cx="382" cy="428" r="1.5" fill="#d8ff3e" opacity="0.186"/><circle cx="428" cy="428" r="1.6" fill="#d8ff3e" opacity="0.237"/><circle cx="474" cy="428" r="1.7" fill="#d8ff3e" opacity="0.287"/><circle cx="520" cy="428" r="1.8" fill="#d8ff3e" opacity="0.337"/><circle cx="566" cy="428" r="2.0" fill="#d8ff3e" opacity="0.385"/><circle cx="612" cy="428" r="2.1" fill="#d8ff3e" opacity="0.430"/><circle cx="658" cy="428" r="2.1" fill="#d8ff3e" opacity="0.458"/><circle cx="704" cy="428" r="2.1" fill="#d8ff3e" opacity="0.437"/><circle cx="750" cy="428" r="2.0" fill="#d8ff3e" opacity="0.393"/><circle cx="796" cy="428" r="1.9" fill="#d8ff3e" opacity="0.345"/><circle cx="842" cy="428" r="1.7" fill="#d8ff3e" opacity="0.296"/><circle cx="888" cy="428" r="1.6" fill="#d8ff3e" opacity="0.245"/><circle cx="934" cy="428" r="1.5" fill="#d8ff3e" opacity="0.195"/><circle cx="980" cy="428" r="1.4" fill="#d8ff3e" opacity="0.144"/><circle cx="1026" cy="428" r="1.2" fill="#d8ff3e" opacity="0.093"/><circle cx="1072" cy="428" r="1.1" fill="#d8ff3e" opacity="0.042"/><circle cx="244" cy="474" r="1.1" fill="#d8ff3e" opacity="0.026"/><circle cx="290" cy="474" r="1.2" fill="#d8ff3e" opacity="0.076"/><circle cx="336" cy="474" r="1.3" fill="#d8ff3e" opacity="0.126"/><circle cx="382" cy="474" r="1.4" fill="#d8ff3e" opacity="0.175"/><circle cx="428" cy="474" r="1.6" fill="#d8ff3e" opacity="0.224"/><circle cx="474" cy="474" r="1.7" fill="#d8ff3e" opacity="0.271"/><circle cx="520" cy="474" r="1.8" fill="#d8ff3e" opacity="0.317"/><circle cx="566" cy="474" r="1.9" fill="#d8ff3e" opacity="0.358"/><circle cx="612" cy="474" r="2.0" fill="#d8ff3e" opacity="0.391"/><circle cx="658" cy="474" r="2.0" fill="#d8ff3e" opacity="0.407"/><circle cx="704" cy="474" r="2.0" fill="#d8ff3e" opacity="0.396"/><circle cx="750" cy="474" r="1.9" fill="#d8ff3e" opacity="0.365"/><circle cx="796" cy="474" r="1.8" fill="#d8ff3e" opacity="0.324"/><circle cx="842" cy="474" r="1.7" fill="#d8ff3e" opacity="0.279"/><circle cx="888" cy="474" r="1.6" fill="#d8ff3e" opacity="0.232"/><circle cx="934" cy="474" r="1.5" fill="#d8ff3e" opacity="0.184"/><circle cx="980" cy="474" r="1.3" fill="#d8ff3e" opacity="0.135"/><circle cx="1026" cy="474" r="1.2" fill="#d8ff3e" opacity="0.085"/><circle cx="1072" cy="474" r="1.1" fill="#d8ff3e" opacity="0.035"/><circle cx="290" cy="520" r="1.2" fill="#d8ff3e" opacity="0.062"/><circle cx="336" cy="520" r="1.3" fill="#d8ff3e" opacity="0.110"/><circle cx="382" cy="520" r="1.4" fill="#d8ff3e" opacity="0.157"/><circle cx="428" cy="520" r="1.5" fill="#d8ff3e" opacity="0.203"/><circle cx="474" cy="520" r="1.6" fill="#d8ff3e" opacity="0.246"/><circle cx="520" cy="520" r="1.7" fill="#d8ff3e" opacity="0.286"/><circle cx="566" cy="520" r="1.8" fill="#d8ff3e" opacity="0.320"/><circle cx="612" cy="520" r="1.9" fill="#d8ff3e" opacity="0.345"/><circle cx="658" cy="520" r="1.9" fill="#d8ff3e" opacity="0.355"/><circle cx="704" cy="520" r="1.9" fill="#d8ff3e" opacity="0.348"/><circle cx="750" cy="520" r="1.8" fill="#d8ff3e" opacity="0.326"/><circle cx="796" cy="520" r="1.7" fill="#d8ff3e" opacity="0.293"/><circle cx="842" cy="520" r="1.6" fill="#d8ff3e" opacity="0.253"/><circle cx="888" cy="520" r="1.5" fill="#d8ff3e" opacity="0.210"/><circle cx="934" cy="520" r="1.4" fill="#d8ff3e" opacity="0.165"/><circle cx="980" cy="520" r="1.3" fill="#d8ff3e" opacity="0.118"/><circle cx="1026" cy="520" r="1.2" fill="#d8ff3e" opacity="0.071"/><circle cx="1072" cy="520" r="1.1" fill="#d8ff3e" opacity="0.022"/><circle cx="290" cy="566" r="1.1" fill="#d8ff3e" opacity="0.043"/><circle cx="336" cy="566" r="1.2" fill="#d8ff3e" opacity="0.088"/><circle cx="382" cy="566" r="1.3" fill="#d8ff3e" opacity="0.133"/><circle cx="428" cy="566" r="1.4" fill="#d8ff3e" opacity="0.175"/><circle cx="474" cy="566" r="1.5" fill="#d8ff3e" opacity="0.214"/><circle cx="520" cy="566" r="1.6" fill="#d8ff3e" opacity="0.249"/><circle cx="566" cy="566" r="1.7" fill="#d8ff3e" opacity="0.277"/><circle cx="612" cy="566" r="1.7" fill="#d8ff3e" opacity="0.297"/><circle cx="658" cy="566" r="1.8" fill="#d8ff3e" opacity="0.304"/><circle cx="704" cy="566" r="1.7" fill="#d8ff3e" opacity="0.299"/><circle cx="750" cy="566" r="1.7" fill="#d8ff3e" opacity="0.281"/><circle cx="796" cy="566" r="1.6" fill="#d8ff3e" opacity="0.254"/><circle cx="842" cy="566" r="1.6" fill="#d8ff3e" opacity="0.220"/><circle cx="888" cy="566" r="1.5" fill="#d8ff3e" opacity="0.182"/><circle cx="934" cy="566" r="1.4" fill="#d8ff3e" opacity="0.140"/><circle cx="980" cy="566" r="1.2" fill="#d8ff3e" opacity="0.096"/><circle cx="1026" cy="566" r="1.1" fill="#d8ff3e" opacity="0.051"/><circle cx="336" cy="612" r="1.2" fill="#d8ff3e" opacity="0.062"/><circle cx="382" cy="612" r="1.3" fill="#d8ff3e" opacity="0.103"/><circle cx="428" cy="612" r="1.4" fill="#d8ff3e" opacity="0.142"/><circle cx="474" cy="612" r="1.4" fill="#d8ff3e" opacity="0.177"/><circle cx="520" cy="612" r="1.5" fill="#d8ff3e" opacity="0.207"/><circle cx="566" cy="612" r="1.6" fill="#d8ff3e" opacity="0.231"/><circle cx="612" cy="612" r="1.6" fill="#d8ff3e" opacity="0.247"/><circle cx="658" cy="612" r="1.6" fill="#d8ff3e" opacity="0.253"/><circle cx="704" cy="612" r="1.6" fill="#d8ff3e" opacity="0.249"/><circle cx="750" cy="612" r="1.6" fill="#d8ff3e" opacity="0.235"/><circle cx="796" cy="612" r="1.5" fill="#d8ff3e" opacity="0.212"/><circle cx="842" cy="612" r="1.5" fill="#d8ff3e" opacity="0.182"/><circle cx="888" cy="612" r="1.4" fill="#d8ff3e" opacity="0.148"/><circle cx="934" cy="612" r="1.3" fill="#d8ff3e" opacity="0.110"/><circle cx="980" cy="612" r="1.2" fill="#d8ff3e" opacity="0.069"/><circle cx="1026" cy="612" r="1.1" fill="#d8ff3e" opacity="0.026"/><circle cx="336" cy="658" r="1.1" fill="#d8ff3e" opacity="0.031"/><circle cx="382" cy="658" r="1.2" fill="#d8ff3e" opacity="0.069"/><circle cx="428" cy="658" r="1.3" fill="#d8ff3e" opacity="0.105"/><circle cx="474" cy="658" r="1.3" fill="#d8ff3e" opacity="0.136"/><circle cx="520" cy="658" r="1.4" fill="#d8ff3e" opacity="0.163"/><circle cx="566" cy="658" r="1.5" fill="#d8ff3e" opacity="0.184"/><circle cx="612" cy="658" r="1.5" fill="#d8ff3e" opacity="0.197"/><circle cx="658" cy="658" r="1.5" fill="#d8ff3e" opacity="0.202"/><circle cx="704" cy="658" r="1.5" fill="#d8ff3e" opacity="0.199"/><circle cx="750" cy="658" r="1.5" fill="#d8ff3e" opacity="0.187"/><circle cx="796" cy="658" r="1.4" fill="#d8ff3e" opacity="0.167"/><circle cx="842" cy="658" r="1.4" fill="#d8ff3e" opacity="0.141"/><circle cx="888" cy="658" r="1.3" fill="#d8ff3e" opacity="0.110"/><circle cx="934" cy="658" r="1.2" fill="#d8ff3e" opacity="0.076"/><circle cx="980" cy="658" r="1.1" fill="#d8ff3e" opacity="0.038"/><circle cx="382" cy="704" r="1.1" fill="#d8ff3e" opacity="0.033"/><circle cx="428" cy="704" r="1.2" fill="#d8ff3e" opacity="0.065"/><circle cx="474" cy="704" r="1.2" fill="#d8ff3e" opacity="0.093"/><circle cx="520" cy="704" r="1.3" fill="#d8ff3e" opacity="0.117"/><circle cx="566" cy="704" r="1.3" fill="#d8ff3e" opacity="0.135"/><circle cx="612" cy="704" r="1.4" fill="#d8ff3e" opacity="0.147"/><circle cx="658" cy="704" r="1.4" fill="#d8ff3e" opacity="0.151"/><circle cx="704" cy="704" r="1.4" fill="#d8ff3e" opacity="0.148"/><circle cx="750" cy="704" r="1.3" fill="#d8ff3e" opacity="0.138"/><circle cx="796" cy="704" r="1.3" fill="#d8ff3e" opacity="0.121"/><circle cx="842" cy="704" r="1.2" fill="#d8ff3e" opacity="0.098"/><circle cx="888" cy="704" r="1.2" fill="#d8ff3e" opacity="0.070"/><circle cx="934" cy="704" r="1.1" fill="#d8ff3e" opacity="0.038"/>
<rect width="1200" height="750" fill="url(#vig)"/>
<rect width="1200" height="750" filter="url(#grain)" opacity="0.6"/>
<g font-family="ui-monospace, monospace">
<text x="64" y="88" fill="#d8ff3e" font-size="26" letter-spacing="6" font-weight="700">EXPLAINERS</text>
<text x="64" y="642" fill="#f4f4f1" font-size="66" font-weight="800" letter-spacing="-1" font-family="system-ui, sans-serif">KICKS ON DECK</text>
<text x="64" y="688" fill="#9a9aa0" font-size="22" letter-spacing="4">kicksondeck.store</text>
</g>
</svg>