<svg xmlns="http://www.w3.org/2000/svg" viewBox="0 0 1200 750" width="1200" height="750" role="img" aria-label="Searching &quot;Sneaker Store Near Me&quot;? Here's What to Actually Look For">
<defs>
<filter id="grain"><feTurbulence type="fractalNoise" baseFrequency="0.9" numOctaves="2" stitchTiles="stitch"/><feColorMatrix type="saturate" values="0"/><feComponentTransfer><feFuncA type="linear" slope="0.05"/></feComponentTransfer></filter>
<radialGradient id="floor" cx="50%" cy="50%" r="50%"><stop offset="0%" stop-color="#d8ff3e" stop-opacity="0.28"/><stop offset="100%" stop-color="#d8ff3e" stop-opacity="0"/></radialGradient>
<radialGradient id="wash" cx="78%" cy="30%" r="70%"><stop offset="0%" stop-color="#d8ff3e" stop-opacity="0.10"/><stop offset="100%" stop-color="#d8ff3e" stop-opacity="0"/></radialGradient>
<clipPath id="shoeclip"><path d="M26,206 C10,162 30,110 90,82 C158,50 248,46 326,70 C404,94 470,138 492,180 C506,208 496,232 460,238 L76,244 C42,244 34,228 26,206 Z"/></clipPath>
</defs>
<rect width="1200" height="750" fill="#0a0a0b"/>
<rect width="1200" height="750" fill="url(#wash)"/>
<g stroke="#d8ff3e" stroke-width="1" opacity="0.12"><line x1="640" y1="40" x2="640" y2="710"/><line x1="730" y1="40" x2="730" y2="710"/><line x1="820" y1="40" x2="820" y2="710"/><line x1="910" y1="40" x2="910" y2="710"/><line x1="1000" y1="40" x2="1000" y2="710"/><line x1="1090" y1="40" x2="1090" y2="710"/><line x1="1180" y1="40" x2="1180" y2="710"/><line x1="620" y1="90" x2="1160" y2="90"/><line x1="620" y1="200" x2="1160" y2="200"/><line x1="620" y1="310" x2="1160" y2="310"/><line x1="620" y1="420" x2="1160" y2="420"/><line x1="620" y1="530" x2="1160" y2="530"/><line x1="620" y1="640" x2="1160" y2="640"/></g><circle cx="922" cy="323" r="7" fill="#d8ff3e" opacity="0.7"/>
<g transform="translate(620,330) rotate(-8)">
  <ellipse cx="270" cy="268" rx="290" ry="42" fill="url(#floor)"/>
  <path d="M26,206 C10,162 30,110 90,82 C158,50 248,46 326,70 C404,94 470,138 492,180 C506,208 496,232 460,238 L76,244 C42,244 34,228 26,206 Z" fill="#16161a" stroke="#d8ff3e" stroke-width="3"/>
  <g clip-path="url(#shoeclip)"></g>
  <ellipse cx="150" cy="118" rx="30" ry="21" fill="#0a0a0b" stroke="#d8ff3e" stroke-width="2" opacity="0.95" transform="rotate(-18 150 118)"/><ellipse cx="236" cy="96" rx="32" ry="23" fill="#0a0a0b" stroke="#d8ff3e" stroke-width="2" opacity="0.95" transform="rotate(-6 236 96)"/><ellipse cx="318" cy="108" rx="27" ry="19" fill="#0a0a0b" stroke="#d8ff3e" stroke-width="2" opacity="0.95" transform="rotate(10 318 108)"/><ellipse cx="196" cy="172" rx="25" ry="17" fill="#0a0a0b" stroke="#d8ff3e" stroke-width="2" opacity="0.95" transform="rotate(-12 196 172)"/><ellipse cx="298" cy="168" rx="29" ry="19" fill="#0a0a0b" stroke="#d8ff3e" stroke-width="2" opacity="0.95" transform="rotate(4 298 168)"/><ellipse cx="392" cy="150" rx="24" ry="16" fill="#0a0a0b" stroke="#d8ff3e" stroke-width="2" opacity="0.95" transform="rotate(14 392 150)"/>
</g>
<g font-family="ui-monospace, monospace">
  <rect x="60" y="64" rx="17" height="34" width="146" fill="#d8ff3e"/>
  <text x="133" y="87" fill="#0a0a0b" font-size="19" letter-spacing="4" font-weight="700" text-anchor="middle">CULTURE</text>
</g>
<g font-family="system-ui, sans-serif" font-weight="800" fill="#f4f4f1" letter-spacing="-1">
  <text x="62" y="300" font-size="58">SEARCHING</text>
  <text x="62" y="370" font-size="58">&quot;SNEAKER STORE</text>
  <text x="62" y="440" font-size="58">NEAR ME…</text>
</g>
<line x1="62" y1="632" x2="342" y2="632" stroke="#d8ff3e" stroke-width="3"/>
<g font-family="ui-monospace, monospace">
  <text x="62" y="676" fill="#f4f4f1" font-size="30" font-weight="800" letter-spacing="1" font-family="system-ui, sans-serif">KICKS ON DECK</text>
  <text x="62" y="708" fill="#9a9aa0" font-size="19" letter-spacing="4">KICKSONDECK.STORE</text>
</g>
<rect width="1200" height="750" filter="url(#grain)" opacity="0.55"/>
</svg>