<svg xmlns="http://www.w3.org/2000/svg" viewBox="0 0 1200 750" width="1200" height="750" role="img" aria-label="Yeezy Slides Sizing — Do They Run Big or Small?">
<defs>
<filter id="grain"><feTurbulence type="fractalNoise" baseFrequency="0.9" numOctaves="2" stitchTiles="stitch"/><feColorMatrix type="saturate" values="0"/><feComponentTransfer><feFuncA type="linear" slope="0.05"/></feComponentTransfer></filter>
<radialGradient id="floor" cx="50%" cy="50%" r="50%"><stop offset="0%" stop-color="#d8ff3e" stop-opacity="0.28"/><stop offset="100%" stop-color="#d8ff3e" stop-opacity="0"/></radialGradient>
<radialGradient id="wash" cx="78%" cy="30%" r="70%"><stop offset="0%" stop-color="#d8ff3e" stop-opacity="0.10"/><stop offset="100%" stop-color="#d8ff3e" stop-opacity="0"/></radialGradient>
<clipPath id="shoeclip"><path d="M24,150 C24,116 66,94 148,84 L396,60 C452,54 490,80 496,118 L502,186 C505,220 486,240 448,240 L66,242 C36,242 24,226 24,196 Z"/></clipPath>
</defs>
<rect width="1200" height="750" fill="#0a0a0b"/>
<rect width="1200" height="750" fill="url(#wash)"/>
<circle cx="660" cy="70" r="1.6" fill="#d8ff3e" opacity="0.116"/><circle cx="712" cy="70" r="1.6" fill="#d8ff3e" opacity="0.132"/><circle cx="764" cy="70" r="1.6" fill="#d8ff3e" opacity="0.170"/><circle cx="816" cy="70" r="1.6" fill="#d8ff3e" opacity="0.107"/><circle cx="868" cy="70" r="1.6" fill="#d8ff3e" opacity="0.053"/><circle cx="920" cy="70" r="1.6" fill="#d8ff3e" opacity="0.123"/><circle cx="972" cy="70" r="1.6" fill="#d8ff3e" opacity="0.149"/><circle cx="1024" cy="70" r="1.6" fill="#d8ff3e" opacity="0.149"/><circle cx="1076" cy="70" r="1.6" fill="#d8ff3e" opacity="0.052"/><circle cx="1128" cy="70" r="1.6" fill="#d8ff3e" opacity="0.163"/><circle cx="660" cy="122" r="1.6" fill="#d8ff3e" opacity="0.081"/><circle cx="712" cy="122" r="1.6" fill="#d8ff3e" opacity="0.112"/><circle cx="764" cy="122" r="1.6" fill="#d8ff3e" opacity="0.145"/><circle cx="816" cy="122" r="1.6" fill="#d8ff3e" opacity="0.085"/><circle cx="868" cy="122" r="1.6" fill="#d8ff3e" opacity="0.165"/><circle cx="920" cy="122" r="1.6" fill="#d8ff3e" opacity="0.165"/><circle cx="972" cy="122" r="1.6" fill="#d8ff3e" opacity="0.085"/><circle cx="1024" cy="122" r="1.6" fill="#d8ff3e" opacity="0.147"/><circle cx="1076" cy="122" r="1.6" fill="#d8ff3e" opacity="0.085"/><circle cx="1128" cy="122" r="1.6" fill="#d8ff3e" opacity="0.052"/><circle cx="660" cy="174" r="1.6" fill="#d8ff3e" opacity="0.163"/><circle cx="712" cy="174" r="1.6" fill="#d8ff3e" opacity="0.074"/><circle cx="764" cy="174" r="1.6" fill="#d8ff3e" opacity="0.106"/><circle cx="816" cy="174" r="1.6" fill="#d8ff3e" opacity="0.059"/><circle cx="868" cy="174" r="1.6" fill="#d8ff3e" opacity="0.094"/><circle cx="920" cy="174" r="1.6" fill="#d8ff3e" opacity="0.153"/><circle cx="972" cy="174" r="1.6" fill="#d8ff3e" opacity="0.105"/><circle cx="1024" cy="174" r="1.6" fill="#d8ff3e" opacity="0.063"/><circle cx="1076" cy="174" r="1.6" fill="#d8ff3e" opacity="0.121"/><circle cx="1128" cy="174" r="1.6" fill="#d8ff3e" opacity="0.136"/><circle cx="660" cy="226" r="1.6" fill="#d8ff3e" opacity="0.112"/><circle cx="712" cy="226" r="1.6" fill="#d8ff3e" opacity="0.153"/><circle cx="764" cy="226" r="1.6" fill="#d8ff3e" opacity="0.105"/><circle cx="816" cy="226" r="1.6" fill="#d8ff3e" opacity="0.118"/><circle cx="868" cy="226" r="1.6" fill="#d8ff3e" opacity="0.118"/><circle cx="920" cy="226" r="1.6" fill="#d8ff3e" opacity="0.079"/><circle cx="972" cy="226" r="1.6" fill="#d8ff3e" opacity="0.097"/><circle cx="1024" cy="226" r="1.6" fill="#d8ff3e" opacity="0.081"/><circle cx="1076" cy="226" r="1.6" fill="#d8ff3e" opacity="0.135"/><circle cx="1128" cy="226" r="1.6" fill="#d8ff3e" opacity="0.118"/><circle cx="660" cy="278" r="1.6" fill="#d8ff3e" opacity="0.132"/><circle cx="712" cy="278" r="1.6" fill="#d8ff3e" opacity="0.134"/><circle cx="764" cy="278" r="1.6" fill="#d8ff3e" opacity="0.144"/><circle cx="816" cy="278" r="1.6" fill="#d8ff3e" opacity="0.076"/><circle cx="868" cy="278" r="1.6" fill="#d8ff3e" opacity="0.052"/><circle cx="920" cy="278" r="1.6" fill="#d8ff3e" opacity="0.137"/><circle cx="972" cy="278" r="1.6" fill="#d8ff3e" opacity="0.118"/><circle cx="1024" cy="278" r="1.6" fill="#d8ff3e" opacity="0.148"/><circle cx="1076" cy="278" r="1.6" fill="#d8ff3e" opacity="0.153"/><circle cx="1128" cy="278" r="1.6" fill="#d8ff3e" opacity="0.084"/><circle cx="660" cy="330" r="1.6" fill="#d8ff3e" opacity="0.070"/><circle cx="712" cy="330" r="1.6" fill="#d8ff3e" opacity="0.065"/><circle cx="764" cy="330" r="1.6" fill="#d8ff3e" opacity="0.155"/><circle cx="816" cy="330" r="1.6" fill="#d8ff3e" opacity="0.096"/><circle cx="868" cy="330" r="1.6" fill="#d8ff3e" opacity="0.130"/><circle cx="920" cy="330" r="1.6" fill="#d8ff3e" opacity="0.072"/><circle cx="972" cy="330" r="1.6" fill="#d8ff3e" opacity="0.119"/><circle cx="1024" cy="330" r="1.6" fill="#d8ff3e" opacity="0.158"/><circle cx="1076" cy="330" r="1.6" fill="#d8ff3e" opacity="0.166"/><circle cx="1128" cy="330" r="1.6" fill="#d8ff3e" opacity="0.080"/><circle cx="660" cy="382" r="1.6" fill="#d8ff3e" opacity="0.160"/><circle cx="712" cy="382" r="1.6" fill="#d8ff3e" opacity="0.065"/><circle cx="764" cy="382" r="1.6" fill="#d8ff3e" opacity="0.116"/><circle cx="816" cy="382" r="1.6" fill="#d8ff3e" opacity="0.154"/><circle cx="868" cy="382" r="1.6" fill="#d8ff3e" opacity="0.092"/><circle cx="920" cy="382" r="1.6" fill="#d8ff3e" opacity="0.111"/><circle cx="972" cy="382" r="1.6" fill="#d8ff3e" opacity="0.113"/><circle cx="1024" cy="382" r="1.6" fill="#d8ff3e" opacity="0.154"/><circle cx="1076" cy="382" r="1.6" fill="#d8ff3e" opacity="0.138"/><circle cx="1128" cy="382" r="1.6" fill="#d8ff3e" opacity="0.082"/><circle cx="660" cy="434" r="1.6" fill="#d8ff3e" opacity="0.073"/><circle cx="712" cy="434" r="1.6" fill="#d8ff3e" opacity="0.075"/><circle cx="764" cy="434" r="1.6" fill="#d8ff3e" opacity="0.056"/><circle cx="816" cy="434" r="1.6" fill="#d8ff3e" opacity="0.124"/><circle cx="868" cy="434" r="1.6" fill="#d8ff3e" opacity="0.162"/><circle cx="920" cy="434" r="1.6" fill="#d8ff3e" opacity="0.053"/><circle cx="972" cy="434" r="1.6" fill="#d8ff3e" opacity="0.144"/><circle cx="1024" cy="434" r="1.6" fill="#d8ff3e" opacity="0.138"/><circle cx="1076" cy="434" r="1.6" fill="#d8ff3e" opacity="0.083"/><circle cx="1128" cy="434" r="1.6" fill="#d8ff3e" opacity="0.072"/><circle cx="660" cy="486" r="1.6" fill="#d8ff3e" opacity="0.108"/><circle cx="712" cy="486" r="1.6" fill="#d8ff3e" opacity="0.165"/><circle cx="764" cy="486" r="1.6" fill="#d8ff3e" opacity="0.092"/><circle cx="816" cy="486" r="1.6" fill="#d8ff3e" opacity="0.081"/><circle cx="868" cy="486" r="1.6" fill="#d8ff3e" opacity="0.148"/><circle cx="920" cy="486" r="1.6" fill="#d8ff3e" opacity="0.126"/><circle cx="972" cy="486" r="1.6" fill="#d8ff3e" opacity="0.061"/><circle cx="1024" cy="486" r="1.6" fill="#d8ff3e" opacity="0.147"/><circle cx="1076" cy="486" r="1.6" fill="#d8ff3e" opacity="0.069"/><circle cx="1128" cy="486" r="1.6" fill="#d8ff3e" opacity="0.123"/><circle cx="660" cy="538" r="1.6" fill="#d8ff3e" opacity="0.169"/><circle cx="712" cy="538" r="1.6" fill="#d8ff3e" opacity="0.074"/><circle cx="764" cy="538" r="1.6" fill="#d8ff3e" opacity="0.110"/><circle cx="816" cy="538" r="1.6" fill="#d8ff3e" opacity="0.096"/><circle cx="868" cy="538" r="1.6" fill="#d8ff3e" opacity="0.064"/><circle cx="920" cy="538" r="1.6" fill="#d8ff3e" opacity="0.111"/><circle cx="972" cy="538" r="1.6" fill="#d8ff3e" opacity="0.080"/><circle cx="1024" cy="538" r="1.6" fill="#d8ff3e" opacity="0.104"/><circle cx="1076" cy="538" r="1.6" fill="#d8ff3e" opacity="0.149"/><circle cx="1128" cy="538" r="1.6" fill="#d8ff3e" opacity="0.071"/><circle cx="660" cy="590" r="1.6" fill="#d8ff3e" opacity="0.074"/><circle cx="712" cy="590" r="1.6" fill="#d8ff3e" opacity="0.068"/><circle cx="764" cy="590" r="1.6" fill="#d8ff3e" opacity="0.088"/><circle cx="816" cy="590" r="1.6" fill="#d8ff3e" opacity="0.100"/><circle cx="868" cy="590" r="1.6" fill="#d8ff3e" opacity="0.137"/><circle cx="920" cy="590" r="1.6" fill="#d8ff3e" opacity="0.076"/><circle cx="972" cy="590" r="1.6" fill="#d8ff3e" opacity="0.166"/><circle cx="1024" cy="590" r="1.6" fill="#d8ff3e" opacity="0.135"/><circle cx="1076" cy="590" r="1.6" fill="#d8ff3e" opacity="0.169"/><circle cx="1128" cy="590" r="1.6" fill="#d8ff3e" opacity="0.150"/><circle cx="660" cy="642" r="1.6" fill="#d8ff3e" opacity="0.066"/><circle cx="712" cy="642" r="1.6" fill="#d8ff3e" opacity="0.123"/><circle cx="764" cy="642" r="1.6" fill="#d8ff3e" opacity="0.136"/><circle cx="816" cy="642" r="1.6" fill="#d8ff3e" opacity="0.150"/><circle cx="868" cy="642" r="1.6" fill="#d8ff3e" opacity="0.141"/><circle cx="920" cy="642" r="1.6" fill="#d8ff3e" opacity="0.167"/><circle cx="972" cy="642" r="1.6" fill="#d8ff3e" opacity="0.149"/><circle cx="1024" cy="642" r="1.6" fill="#d8ff3e" opacity="0.097"/><circle cx="1076" cy="642" r="1.6" fill="#d8ff3e" opacity="0.065"/><circle cx="1128" cy="642" r="1.6" fill="#d8ff3e" opacity="0.078"/>
<g transform="translate(620,330) rotate(-8)">
  <ellipse cx="270" cy="268" rx="290" ry="42" fill="url(#floor)"/>
  <path d="M24,150 C24,116 66,94 148,84 L396,60 C452,54 490,80 496,118 L502,186 C505,220 486,240 448,240 L66,242 C36,242 24,226 24,196 Z" fill="#16161a" stroke="#d8ff3e" stroke-width="3"/>
  <g clip-path="url(#shoeclip)"><circle cx="478.93681534565985" cy="121.89559950027615" r="3.9" fill="#d8ff3e" opacity="0.14"/><circle cx="143.93518688622862" cy="206.95952367968857" r="4.8" fill="#d8ff3e" opacity="0.14"/><circle cx="199.92627957835793" cy="176.9504534965381" r="4.9" fill="#d8ff3e" opacity="0.14"/><circle cx="454.9570669932291" cy="195.83860702812672" r="5.9" fill="#d8ff3e" opacity="0.14"/><circle cx="157.76891651563346" cy="187.37833846826106" r="3.2" fill="#d8ff3e" opacity="0.14"/><circle cx="316.6950309695676" cy="130.22206048481166" r="2.6" fill="#d8ff3e" opacity="0.14"/><circle cx="77.96481449157" cy="148.34854054730386" r="3.4" fill="#d8ff3e" opacity="0.14"/><circle cx="236.54922255780548" cy="195.14581551775336" r="5.5" fill="#d8ff3e" opacity="0.14"/><circle cx="331.59709540195763" cy="151.2602853262797" r="4.9" fill="#d8ff3e" opacity="0.14"/><circle cx="403.62561798188835" cy="111.85371317900717" r="3.8" fill="#d8ff3e" opacity="0.14"/><circle cx="196.49772433564067" cy="150.72939404752105" r="2.0" fill="#d8ff3e" opacity="0.14"/><circle cx="240.3335067210719" cy="123.67133680731058" r="5.9" fill="#d8ff3e" opacity="0.14"/><circle cx="262.446217155084" cy="101.07231528032571" r="6.0" fill="#d8ff3e" opacity="0.14"/><circle cx="299.2500010924414" cy="210.59230810962617" r="2.5" fill="#d8ff3e" opacity="0.14"/></g>
  <path d="M52,242 L58,214 M118,242 L124,210 M188,243 L194,208 M258,243 L264,208 M328,242 L334,208 M398,241 L404,208" stroke="#0a0a0b" stroke-width="9" stroke-linecap="round"/><path d="M40,140 C160,108 330,88 480,102" fill="none" stroke="#d8ff3e" stroke-width="2.4" opacity="0.5"/>
</g>
<g font-family="ui-monospace, monospace">
  <rect x="60" y="64" rx="17" height="34" width="130" fill="#d8ff3e"/>
  <text x="125" y="87" fill="#0a0a0b" font-size="19" letter-spacing="4" font-weight="700" text-anchor="middle">SIZING</text>
</g>
<g font-family="system-ui, sans-serif" font-weight="800" fill="#f4f4f1" letter-spacing="-1">
  <text x="62" y="300" font-size="58">YEEZY SLIDES</text>
  <text x="62" y="370" font-size="58">SIZING - DO</text>
  <text x="62" y="440" font-size="58">THEY RUN BIG OR…</text>
</g>
<line x1="62" y1="632" x2="342" y2="632" stroke="#d8ff3e" stroke-width="3"/>
<g font-family="ui-monospace, monospace">
  <text x="62" y="676" fill="#f4f4f1" font-size="30" font-weight="800" letter-spacing="1" font-family="system-ui, sans-serif">KICKS ON DECK</text>
  <text x="62" y="708" fill="#9a9aa0" font-size="19" letter-spacing="4">KICKSONDECK.STORE</text>
</g>
<rect width="1200" height="750" filter="url(#grain)" opacity="0.55"/>
</svg>