<svg xmlns="http://www.w3.org/2000/svg" viewBox="0 0 1200 750" width="1200" height="750" role="img" aria-label="Every Yeezy Foam Runner Colorway, Explained (2026 Guide)">
<defs>
<radialGradient id="glow" cx="44.3%" cy="26.1%" r="60%"><stop offset="0%" stop-color="#d8ff3e" stop-opacity="0.30"/><stop offset="45%" stop-color="#d8ff3e" stop-opacity="0.05"/><stop offset="100%" stop-color="#d8ff3e" stop-opacity="0"/></radialGradient>
<filter id="grain"><feTurbulence type="fractalNoise" baseFrequency="0.9" numOctaves="2" stitchTiles="stitch"/><feColorMatrix type="saturate" values="0"/><feComponentTransfer><feFuncA type="linear" slope="0.05"/></feComponentTransfer></filter>
<linearGradient id="vig" x1="0" y1="0" x2="0" y2="1"><stop offset="0%" stop-color="#000" stop-opacity="0"/><stop offset="100%" stop-color="#000" stop-opacity="0.55"/></linearGradient>
</defs>
<rect width="1200" height="750" fill="#0a0a0b"/>
<rect width="1200" height="750" fill="url(#glow)"/>
<circle cx="152" cy="60" r="1.1" fill="#d8ff3e" opacity="0.053"/><circle cx="198" cy="60" r="1.3" fill="#d8ff3e" opacity="0.100"/><circle cx="244" cy="60" r="1.4" fill="#d8ff3e" opacity="0.147"/><circle cx="290" cy="60" r="1.5" fill="#d8ff3e" opacity="0.193"/><circle cx="336" cy="60" r="1.6" fill="#d8ff3e" opacity="0.236"/><circle cx="382" cy="60" r="1.7" fill="#d8ff3e" opacity="0.276"/><circle cx="428" cy="60" r="1.8" fill="#d8ff3e" opacity="0.310"/><circle cx="474" cy="60" r="1.8" fill="#d8ff3e" opacity="0.336"/><circle cx="520" cy="60" r="1.9" fill="#d8ff3e" opacity="0.348"/><circle cx="566" cy="60" r="1.9" fill="#d8ff3e" opacity="0.344"/><circle cx="612" cy="60" r="1.8" fill="#d8ff3e" opacity="0.324"/><circle cx="658" cy="60" r="1.7" fill="#d8ff3e" opacity="0.293"/><circle cx="704" cy="60" r="1.6" fill="#d8ff3e" opacity="0.255"/><circle cx="750" cy="60" r="1.5" fill="#d8ff3e" opacity="0.214"/><circle cx="796" cy="60" r="1.4" fill="#d8ff3e" opacity="0.169"/><circle cx="842" cy="60" r="1.3" fill="#d8ff3e" opacity="0.123"/><circle cx="888" cy="60" r="1.2" fill="#d8ff3e" opacity="0.076"/><circle cx="934" cy="60" r="1.1" fill="#d8ff3e" opacity="0.027"/><circle cx="152" cy="106" r="1.2" fill="#d8ff3e" opacity="0.067"/><circle cx="198" cy="106" r="1.3" fill="#d8ff3e" opacity="0.117"/><circle cx="244" cy="106" r="1.4" fill="#d8ff3e" opacity="0.166"/><circle cx="290" cy="106" r="1.5" fill="#d8ff3e" opacity="0.214"/><circle cx="336" cy="106" r="1.7" fill="#d8ff3e" opacity="0.261"/><circle cx="382" cy="106" r="1.8" fill="#d8ff3e" opacity="0.307"/><circle cx="428" cy="106" r="1.9" fill="#d8ff3e" opacity="0.348"/><circle cx="474" cy="106" r="2.0" fill="#d8ff3e" opacity="0.382"/><circle cx="520" cy="106" r="2.0" fill="#d8ff3e" opacity="0.399"/><circle cx="566" cy="106" r="2.0" fill="#d8ff3e" opacity="0.393"/><circle cx="612" cy="106" r="1.9" fill="#d8ff3e" opacity="0.365"/><circle cx="658" cy="106" r="1.8" fill="#d8ff3e" opacity="0.327"/><circle cx="704" cy="106" r="1.7" fill="#d8ff3e" opacity="0.283"/><circle cx="750" cy="106" r="1.6" fill="#d8ff3e" opacity="0.237"/><circle cx="796" cy="106" r="1.5" fill="#d8ff3e" opacity="0.189"/><circle cx="842" cy="106" r="1.4" fill="#d8ff3e" opacity="0.140"/><circle cx="888" cy="106" r="1.2" fill="#d8ff3e" opacity="0.091"/><circle cx="934" cy="106" r="1.1" fill="#d8ff3e" opacity="0.041"/><circle cx="106" cy="152" r="1.1" fill="#d8ff3e" opacity="0.025"/><circle cx="152" cy="152" r="1.2" fill="#d8ff3e" opacity="0.076"/><circle cx="198" cy="152" r="1.3" fill="#d8ff3e" opacity="0.127"/><circle cx="244" cy="152" r="1.4" fill="#d8ff3e" opacity="0.177"/><circle cx="290" cy="152" r="1.6" fill="#d8ff3e" opacity="0.228"/><circle cx="336" cy="152" r="1.7" fill="#d8ff3e" opacity="0.278"/><circle cx="382" cy="152" r="1.8" fill="#d8ff3e" opacity="0.327"/><circle cx="428" cy="152" r="1.9" fill="#d8ff3e" opacity="0.376"/><circle cx="474" cy="152" r="2.0" fill="#d8ff3e" opacity="0.420"/><circle cx="520" cy="152" r="2.1" fill="#d8ff3e" opacity="0.450"/><circle cx="566" cy="152" r="2.1" fill="#d8ff3e" opacity="0.438"/><circle cx="612" cy="152" r="2.0" fill="#d8ff3e" opacity="0.398"/><circle cx="658" cy="152" r="1.9" fill="#d8ff3e" opacity="0.351"/><circle cx="704" cy="152" r="1.8" fill="#d8ff3e" opacity="0.302"/><circle cx="750" cy="152" r="1.6" fill="#d8ff3e" opacity="0.252"/><circle cx="796" cy="152" r="1.5" fill="#d8ff3e" opacity="0.202"/><circle cx="842" cy="152" r="1.4" fill="#d8ff3e" opacity="0.151"/><circle cx="888" cy="152" r="1.3" fill="#d8ff3e" opacity="0.100"/><circle cx="934" cy="152" r="1.1" fill="#d8ff3e" opacity="0.050"/><circle cx="106" cy="198" r="1.1" fill="#d8ff3e" opacity="0.028"/><circle cx="152" cy="198" r="1.2" fill="#d8ff3e" opacity="0.079"/><circle cx="198" cy="198" r="1.3" fill="#d8ff3e" opacity="0.130"/><circle cx="244" cy="198" r="1.5" fill="#d8ff3e" opacity="0.181"/><circle cx="290" cy="198" r="1.6" fill="#d8ff3e" opacity="0.232"/><circle cx="336" cy="198" r="1.7" fill="#d8ff3e" opacity="0.283"/><circle cx="382" cy="198" r="1.8" fill="#d8ff3e" opacity="0.334"/><circle cx="428" cy="198" r="2.0" fill="#d8ff3e" opacity="0.386"/><circle cx="474" cy="198" r="2.1" fill="#d8ff3e" opacity="0.437"/><circle cx="520" cy="198" r="2.2" fill="#d8ff3e" opacity="0.488"/><circle cx="566" cy="198" r="2.2" fill="#d8ff3e" opacity="0.461"/><circle cx="612" cy="198" r="2.0" fill="#d8ff3e" opacity="0.410"/><circle cx="658" cy="198" r="1.9" fill="#d8ff3e" opacity="0.359"/><circle cx="704" cy="198" r="1.8" fill="#d8ff3e" opacity="0.308"/><circle cx="750" cy="198" r="1.6" fill="#d8ff3e" opacity="0.257"/><circle cx="796" cy="198" r="1.5" fill="#d8ff3e" opacity="0.206"/><circle cx="842" cy="198" r="1.4" fill="#d8ff3e" opacity="0.154"/><circle cx="888" cy="198" r="1.3" fill="#d8ff3e" opacity="0.103"/><circle cx="934" cy="198" r="1.1" fill="#d8ff3e" opacity="0.052"/><circle cx="106" cy="244" r="1.1" fill="#d8ff3e" opacity="0.025"/><circle cx="152" cy="244" r="1.2" fill="#d8ff3e" opacity="0.076"/><circle cx="198" cy="244" r="1.3" fill="#d8ff3e" opacity="0.126"/><circle cx="244" cy="244" r="1.4" fill="#d8ff3e" opacity="0.177"/><circle cx="290" cy="244" r="1.6" fill="#d8ff3e" opacity="0.227"/><circle cx="336" cy="244" r="1.7" fill="#d8ff3e" opacity="0.277"/><circle cx="382" cy="244" r="1.8" fill="#d8ff3e" opacity="0.326"/><circle cx="428" cy="244" r="1.9" fill="#d8ff3e" opacity="0.374"/><circle cx="474" cy="244" r="2.0" fill="#d8ff3e" opacity="0.417"/><circle cx="520" cy="244" r="2.1" fill="#d8ff3e" opacity="0.445"/><circle cx="566" cy="244" r="2.1" fill="#d8ff3e" opacity="0.434"/><circle cx="612" cy="244" r="2.0" fill="#d8ff3e" opacity="0.395"/><circle cx="658" cy="244" r="1.9" fill="#d8ff3e" opacity="0.349"/><circle cx="704" cy="244" r="1.8" fill="#d8ff3e" opacity="0.301"/><circle cx="750" cy="244" r="1.6" fill="#d8ff3e" opacity="0.251"/><circle cx="796" cy="244" r="1.5" fill="#d8ff3e" opacity="0.201"/><circle cx="842" cy="244" r="1.4" fill="#d8ff3e" opacity="0.150"/><circle cx="888" cy="244" r="1.2" fill="#d8ff3e" opacity="0.100"/><circle cx="934" cy="244" r="1.1" fill="#d8ff3e" opacity="0.049"/><circle cx="152" cy="290" r="1.2" fill="#d8ff3e" opacity="0.066"/><circle cx="198" cy="290" r="1.3" fill="#d8ff3e" opacity="0.116"/><circle cx="244" cy="290" r="1.4" fill="#d8ff3e" opacity="0.164"/><circle cx="290" cy="290" r="1.5" fill="#d8ff3e" opacity="0.213"/><circle cx="336" cy="290" r="1.6" fill="#d8ff3e" opacity="0.259"/><circle cx="382" cy="290" r="1.8" fill="#d8ff3e" opacity="0.304"/><circle cx="428" cy="290" r="1.9" fill="#d8ff3e" opacity="0.345"/><circle cx="474" cy="290" r="1.9" fill="#d8ff3e" opacity="0.378"/><circle cx="520" cy="290" r="2.0" fill="#d8ff3e" opacity="0.395"/><circle cx="566" cy="290" r="2.0" fill="#d8ff3e" opacity="0.389"/><circle cx="612" cy="290" r="1.9" fill="#d8ff3e" opacity="0.362"/><circle cx="658" cy="290" r="1.8" fill="#d8ff3e" opacity="0.324"/><circle cx="704" cy="290" r="1.7" fill="#d8ff3e" opacity="0.281"/><circle cx="750" cy="290" r="1.6" fill="#d8ff3e" opacity="0.235"/><circle cx="796" cy="290" r="1.5" fill="#d8ff3e" opacity="0.188"/><circle cx="842" cy="290" r="1.3" fill="#d8ff3e" opacity="0.139"/><circle cx="888" cy="290" r="1.2" fill="#d8ff3e" opacity="0.090"/><circle cx="934" cy="290" r="1.1" fill="#d8ff3e" opacity="0.040"/><circle cx="152" cy="336" r="1.1" fill="#d8ff3e" opacity="0.051"/><circle cx="198" cy="336" r="1.2" fill="#d8ff3e" opacity="0.099"/><circle cx="244" cy="336" r="1.4" fill="#d8ff3e" opacity="0.145"/><circle cx="290" cy="336" r="1.5" fill="#d8ff3e" opacity="0.190"/><circle cx="336" cy="336" r="1.6" fill="#d8ff3e" opacity="0.233"/><circle cx="382" cy="336" r="1.7" fill="#d8ff3e" opacity="0.273"/><circle cx="428" cy="336" r="1.8" fill="#d8ff3e" opacity="0.307"/><circle cx="474" cy="336" r="1.8" fill="#d8ff3e" opacity="0.332"/><circle cx="520" cy="336" r="1.9" fill="#d8ff3e" opacity="0.344"/><circle cx="566" cy="336" r="1.8" fill="#d8ff3e" opacity="0.340"/><circle cx="612" cy="336" r="1.8" fill="#d8ff3e" opacity="0.320"/><circle cx="658" cy="336" r="1.7" fill="#d8ff3e" opacity="0.290"/><circle cx="704" cy="336" r="1.6" fill="#d8ff3e" opacity="0.253"/><circle cx="750" cy="336" r="1.5" fill="#d8ff3e" opacity="0.211"/><circle cx="796" cy="336" r="1.4" fill="#d8ff3e" opacity="0.167"/><circle cx="842" cy="336" r="1.3" fill="#d8ff3e" opacity="0.121"/><circle cx="888" cy="336" r="1.2" fill="#d8ff3e" opacity="0.074"/><circle cx="934" cy="336" r="1.1" fill="#d8ff3e" opacity="0.026"/><circle cx="152" cy="382" r="1.1" fill="#d8ff3e" opacity="0.031"/><circle cx="198" cy="382" r="1.2" fill="#d8ff3e" opacity="0.076"/><circle cx="244" cy="382" r="1.3" fill="#d8ff3e" opacity="0.120"/><circle cx="290" cy="382" r="1.4" fill="#d8ff3e" opacity="0.162"/><circle cx="336" cy="382" r="1.5" fill="#d8ff3e" opacity="0.201"/><circle cx="382" cy="382" r="1.6" fill="#d8ff3e" opacity="0.235"/><circle cx="428" cy="382" r="1.7" fill="#d8ff3e" opacity="0.264"/><circle cx="474" cy="382" r="1.7" fill="#d8ff3e" opacity="0.284"/><circle cx="520" cy="382" r="1.7" fill="#d8ff3e" opacity="0.293"/><circle cx="566" cy="382" r="1.7" fill="#d8ff3e" opacity="0.290"/><circle cx="612" cy="382" r="1.7" fill="#d8ff3e" opacity="0.275"/><circle cx="658" cy="382" r="1.6" fill="#d8ff3e" opacity="0.250"/><circle cx="704" cy="382" r="1.5" fill="#d8ff3e" opacity="0.218"/><circle cx="750" cy="382" r="1.5" fill="#d8ff3e" opacity="0.181"/><circle cx="796" cy="382" r="1.4" fill="#d8ff3e" opacity="0.140"/><circle cx="842" cy="382" r="1.2" fill="#d8ff3e" opacity="0.097"/><circle cx="888" cy="382" r="1.1" fill="#d8ff3e" opacity="0.053"/><circle cx="198" cy="428" r="1.1" fill="#d8ff3e" opacity="0.049"/><circle cx="244" cy="428" r="1.2" fill="#d8ff3e" opacity="0.090"/><circle cx="290" cy="428" r="1.3" fill="#d8ff3e" opacity="0.128"/><circle cx="336" cy="428" r="1.4" fill="#d8ff3e" opacity="0.163"/><circle cx="382" cy="428" r="1.5" fill="#d8ff3e" opacity="0.194"/><circle cx="428" cy="428" r="1.5" fill="#d8ff3e" opacity="0.218"/><circle cx="474" cy="428" r="1.6" fill="#d8ff3e" opacity="0.235"/><circle cx="520" cy="428" r="1.6" fill="#d8ff3e" opacity="0.242"/><circle cx="566" cy="428" r="1.6" fill="#d8ff3e" opacity="0.239"/><circle cx="612" cy="428" r="1.6" fill="#d8ff3e" opacity="0.227"/><circle cx="658" cy="428" r="1.5" fill="#d8ff3e" opacity="0.206"/><circle cx="704" cy="428" r="1.4" fill="#d8ff3e" opacity="0.178"/><circle cx="750" cy="428" r="1.4" fill="#d8ff3e" opacity="0.146"/><circle cx="796" cy="428" r="1.3" fill="#d8ff3e" opacity="0.109"/><circle cx="842" cy="428" r="1.2" fill="#d8ff3e" opacity="0.069"/><circle cx="888" cy="428" r="1.1" fill="#d8ff3e" opacity="0.027"/><circle cx="244" cy="474" r="1.1" fill="#d8ff3e" opacity="0.056"/><circle cx="290" cy="474" r="1.2" fill="#d8ff3e" opacity="0.091"/><circle cx="336" cy="474" r="1.3" fill="#d8ff3e" opacity="0.123"/><circle cx="382" cy="474" r="1.4" fill="#d8ff3e" opacity="0.150"/><circle cx="428" cy="474" r="1.4" fill="#d8ff3e" opacity="0.171"/><circle cx="474" cy="474" r="1.5" fill="#d8ff3e" opacity="0.185"/><circle cx="520" cy="474" r="1.5" fill="#d8ff3e" opacity="0.191"/><circle cx="566" cy="474" r="1.5" fill="#d8ff3e" opacity="0.189"/><circle cx="612" cy="474" r="1.4" fill="#d8ff3e" opacity="0.178"/><circle cx="658" cy="474" r="1.4" fill="#d8ff3e" opacity="0.160"/><circle cx="704" cy="474" r="1.3" fill="#d8ff3e" opacity="0.136"/><circle cx="750" cy="474" r="1.3" fill="#d8ff3e" opacity="0.107"/><circle cx="796" cy="474" r="1.2" fill="#d8ff3e" opacity="0.073"/><circle cx="842" cy="474" r="1.1" fill="#d8ff3e" opacity="0.037"/><circle cx="290" cy="520" r="1.1" fill="#d8ff3e" opacity="0.051"/><circle cx="336" cy="520" r="1.2" fill="#d8ff3e" opacity="0.080"/><circle cx="382" cy="520" r="1.3" fill="#d8ff3e" opacity="0.104"/><circle cx="428" cy="520" r="1.3" fill="#d8ff3e" opacity="0.122"/><circle cx="474" cy="520" r="1.3" fill="#d8ff3e" opacity="0.134"/><circle cx="520" cy="520" r="1.3" fill="#d8ff3e" opacity="0.140"/><circle cx="566" cy="520" r="1.3" fill="#d8ff3e" opacity="0.138"/><circle cx="612" cy="520" r="1.3" fill="#d8ff3e" opacity="0.129"/><circle cx="658" cy="520" r="1.3" fill="#d8ff3e" opacity="0.113"/><circle cx="704" cy="520" r="1.2" fill="#d8ff3e" opacity="0.092"/><circle cx="750" cy="520" r="1.2" fill="#d8ff3e" opacity="0.065"/><circle cx="796" cy="520" r="1.1" fill="#d8ff3e" opacity="0.035"/><circle cx="336" cy="566" r="1.1" fill="#d8ff3e" opacity="0.035"/><circle cx="382" cy="566" r="1.1" fill="#d8ff3e" opacity="0.057"/><circle cx="428" cy="566" r="1.2" fill="#d8ff3e" opacity="0.073"/><circle cx="474" cy="566" r="1.2" fill="#d8ff3e" opacity="0.084"/><circle cx="520" cy="566" r="1.2" fill="#d8ff3e" opacity="0.089"/><circle cx="566" cy="566" r="1.2" fill="#d8ff3e" opacity="0.087"/><circle cx="612" cy="566" r="1.2" fill="#d8ff3e" opacity="0.079"/><circle cx="658" cy="566" r="1.2" fill="#d8ff3e" opacity="0.065"/><circle cx="704" cy="566" r="1.1" fill="#d8ff3e" opacity="0.046"/><circle cx="750" cy="566" r="1.1" fill="#d8ff3e" opacity="0.022"/><circle cx="428" cy="612" r="1.1" fill="#d8ff3e" opacity="0.024"/><circle cx="474" cy="612" r="1.1" fill="#d8ff3e" opacity="0.033"/><circle cx="520" cy="612" r="1.1" fill="#d8ff3e" opacity="0.038"/><circle cx="566" cy="612" r="1.1" fill="#d8ff3e" opacity="0.036"/><circle cx="612" cy="612" r="1.1" fill="#d8ff3e" opacity="0.029"/>
<rect width="1200" height="750" fill="url(#vig)"/>
<rect width="1200" height="750" filter="url(#grain)" opacity="0.6"/>
<g font-family="ui-monospace, monospace">
<text x="64" y="88" fill="#d8ff3e" font-size="26" letter-spacing="6" font-weight="700">GUIDES</text>
<text x="64" y="642" fill="#f4f4f1" font-size="66" font-weight="800" letter-spacing="-1" font-family="system-ui, sans-serif">KICKS ON DECK</text>
<text x="64" y="688" fill="#9a9aa0" font-size="22" letter-spacing="4">kicksondeck.store</text>
</g>
</svg>