<svg xmlns="http://www.w3.org/2000/svg" viewBox="0 0 1200 750" width="1200" height="750" role="img" aria-label="Every Yeezy 350 V2 Colorway, Explained (2026 Visual Guide)">
<defs>
<radialGradient id="glow" cx="48.4%" cy="29.2%" r="60%"><stop offset="0%" stop-color="#d8ff3e" stop-opacity="0.30"/><stop offset="45%" stop-color="#d8ff3e" stop-opacity="0.05"/><stop offset="100%" stop-color="#d8ff3e" stop-opacity="0"/></radialGradient>
<filter id="grain"><feTurbulence type="fractalNoise" baseFrequency="0.9" numOctaves="2" stitchTiles="stitch"/><feColorMatrix type="saturate" values="0"/><feComponentTransfer><feFuncA type="linear" slope="0.05"/></feComponentTransfer></filter>
<linearGradient id="vig" x1="0" y1="0" x2="0" y2="1"><stop offset="0%" stop-color="#000" stop-opacity="0"/><stop offset="100%" stop-color="#000" stop-opacity="0.55"/></linearGradient>
</defs>
<rect width="1200" height="750" fill="#0a0a0b"/>
<rect width="1200" height="750" fill="url(#glow)"/>
<circle cx="198" cy="60" r="1.1" fill="#d8ff3e" opacity="0.039"/><circle cx="244" cy="60" r="1.2" fill="#d8ff3e" opacity="0.086"/><circle cx="290" cy="60" r="1.3" fill="#d8ff3e" opacity="0.132"/><circle cx="336" cy="60" r="1.4" fill="#d8ff3e" opacity="0.175"/><circle cx="382" cy="60" r="1.5" fill="#d8ff3e" opacity="0.217"/><circle cx="428" cy="60" r="1.6" fill="#d8ff3e" opacity="0.255"/><circle cx="474" cy="60" r="1.7" fill="#d8ff3e" opacity="0.287"/><circle cx="520" cy="60" r="1.8" fill="#d8ff3e" opacity="0.311"/><circle cx="566" cy="60" r="1.8" fill="#d8ff3e" opacity="0.323"/><circle cx="612" cy="60" r="1.8" fill="#d8ff3e" opacity="0.320"/><circle cx="658" cy="60" r="1.8" fill="#d8ff3e" opacity="0.304"/><circle cx="704" cy="60" r="1.7" fill="#d8ff3e" opacity="0.277"/><circle cx="750" cy="60" r="1.6" fill="#d8ff3e" opacity="0.242"/><circle cx="796" cy="60" r="1.5" fill="#d8ff3e" opacity="0.203"/><circle cx="842" cy="60" r="1.4" fill="#d8ff3e" opacity="0.160"/><circle cx="888" cy="60" r="1.3" fill="#d8ff3e" opacity="0.116"/><circle cx="934" cy="60" r="1.2" fill="#d8ff3e" opacity="0.070"/><circle cx="980" cy="60" r="1.1" fill="#d8ff3e" opacity="0.023"/><circle cx="198" cy="106" r="1.1" fill="#d8ff3e" opacity="0.056"/><circle cx="244" cy="106" r="1.3" fill="#d8ff3e" opacity="0.105"/><circle cx="290" cy="106" r="1.4" fill="#d8ff3e" opacity="0.153"/><circle cx="336" cy="106" r="1.5" fill="#d8ff3e" opacity="0.200"/><circle cx="382" cy="106" r="1.6" fill="#d8ff3e" opacity="0.246"/><circle cx="428" cy="106" r="1.7" fill="#d8ff3e" opacity="0.289"/><circle cx="474" cy="106" r="1.8" fill="#d8ff3e" opacity="0.327"/><circle cx="520" cy="106" r="1.9" fill="#d8ff3e" opacity="0.357"/><circle cx="566" cy="106" r="1.9" fill="#d8ff3e" opacity="0.373"/><circle cx="612" cy="106" r="1.9" fill="#d8ff3e" opacity="0.370"/><circle cx="658" cy="106" r="1.9" fill="#d8ff3e" opacity="0.348"/><circle cx="704" cy="106" r="1.8" fill="#d8ff3e" opacity="0.314"/><circle cx="750" cy="106" r="1.7" fill="#d8ff3e" opacity="0.274"/><circle cx="796" cy="106" r="1.6" fill="#d8ff3e" opacity="0.230"/><circle cx="842" cy="106" r="1.5" fill="#d8ff3e" opacity="0.184"/><circle cx="888" cy="106" r="1.3" fill="#d8ff3e" opacity="0.137"/><circle cx="934" cy="106" r="1.2" fill="#d8ff3e" opacity="0.088"/><circle cx="980" cy="106" r="1.1" fill="#d8ff3e" opacity="0.039"/><circle cx="198" cy="152" r="1.2" fill="#d8ff3e" opacity="0.068"/><circle cx="244" cy="152" r="1.3" fill="#d8ff3e" opacity="0.118"/><circle cx="290" cy="152" r="1.4" fill="#d8ff3e" opacity="0.168"/><circle cx="336" cy="152" r="1.5" fill="#d8ff3e" opacity="0.218"/><circle cx="382" cy="152" r="1.7" fill="#d8ff3e" opacity="0.267"/><circle cx="428" cy="152" r="1.8" fill="#d8ff3e" opacity="0.314"/><circle cx="474" cy="152" r="1.9" fill="#d8ff3e" opacity="0.360"/><circle cx="520" cy="152" r="2.0" fill="#d8ff3e" opacity="0.399"/><circle cx="566" cy="152" r="2.1" fill="#d8ff3e" opacity="0.424"/><circle cx="612" cy="152" r="2.0" fill="#d8ff3e" opacity="0.418"/><circle cx="658" cy="152" r="2.0" fill="#d8ff3e" opacity="0.387"/><circle cx="704" cy="152" r="1.9" fill="#d8ff3e" opacity="0.344"/><circle cx="750" cy="152" r="1.7" fill="#d8ff3e" opacity="0.298"/><circle cx="796" cy="152" r="1.6" fill="#d8ff3e" opacity="0.250"/><circle cx="842" cy="152" r="1.5" fill="#d8ff3e" opacity="0.201"/><circle cx="888" cy="152" r="1.4" fill="#d8ff3e" opacity="0.151"/><circle cx="934" cy="152" r="1.3" fill="#d8ff3e" opacity="0.101"/><circle cx="980" cy="152" r="1.1" fill="#d8ff3e" opacity="0.050"/><circle cx="152" cy="198" r="1.1" fill="#d8ff3e" opacity="0.023"/><circle cx="198" cy="198" r="1.2" fill="#d8ff3e" opacity="0.074"/><circle cx="244" cy="198" r="1.3" fill="#d8ff3e" opacity="0.125"/><circle cx="290" cy="198" r="1.4" fill="#d8ff3e" opacity="0.176"/><circle cx="336" cy="198" r="1.6" fill="#d8ff3e" opacity="0.227"/><circle cx="382" cy="198" r="1.7" fill="#d8ff3e" opacity="0.278"/><circle cx="428" cy="198" r="1.8" fill="#d8ff3e" opacity="0.328"/><circle cx="474" cy="198" r="1.9" fill="#d8ff3e" opacity="0.379"/><circle cx="520" cy="198" r="2.1" fill="#d8ff3e" opacity="0.428"/><circle cx="566" cy="198" r="2.2" fill="#d8ff3e" opacity="0.471"/><circle cx="612" cy="198" r="2.1" fill="#d8ff3e" opacity="0.458"/><circle cx="658" cy="198" r="2.0" fill="#d8ff3e" opacity="0.411"/><circle cx="704" cy="198" r="1.9" fill="#d8ff3e" opacity="0.361"/><circle cx="750" cy="198" r="1.8" fill="#d8ff3e" opacity="0.311"/><circle cx="796" cy="198" r="1.6" fill="#d8ff3e" opacity="0.260"/><circle cx="842" cy="198" r="1.5" fill="#d8ff3e" opacity="0.209"/><circle cx="888" cy="198" r="1.4" fill="#d8ff3e" opacity="0.158"/><circle cx="934" cy="198" r="1.3" fill="#d8ff3e" opacity="0.107"/><circle cx="980" cy="198" r="1.1" fill="#d8ff3e" opacity="0.056"/><circle cx="152" cy="244" r="1.1" fill="#d8ff3e" opacity="0.023"/><circle cx="198" cy="244" r="1.2" fill="#d8ff3e" opacity="0.074"/><circle cx="244" cy="244" r="1.3" fill="#d8ff3e" opacity="0.125"/><circle cx="290" cy="244" r="1.4" fill="#d8ff3e" opacity="0.175"/><circle cx="336" cy="244" r="1.6" fill="#d8ff3e" opacity="0.226"/><circle cx="382" cy="244" r="1.7" fill="#d8ff3e" opacity="0.277"/><circle cx="428" cy="244" r="1.8" fill="#d8ff3e" opacity="0.328"/><circle cx="474" cy="244" r="1.9" fill="#d8ff3e" opacity="0.378"/><circle cx="520" cy="244" r="2.1" fill="#d8ff3e" opacity="0.427"/><circle cx="566" cy="244" r="2.2" fill="#d8ff3e" opacity="0.468"/><circle cx="612" cy="244" r="2.1" fill="#d8ff3e" opacity="0.456"/><circle cx="658" cy="244" r="2.0" fill="#d8ff3e" opacity="0.410"/><circle cx="704" cy="244" r="1.9" fill="#d8ff3e" opacity="0.361"/><circle cx="750" cy="244" r="1.8" fill="#d8ff3e" opacity="0.310"/><circle cx="796" cy="244" r="1.6" fill="#d8ff3e" opacity="0.260"/><circle cx="842" cy="244" r="1.5" fill="#d8ff3e" opacity="0.209"/><circle cx="888" cy="244" r="1.4" fill="#d8ff3e" opacity="0.158"/><circle cx="934" cy="244" r="1.3" fill="#d8ff3e" opacity="0.107"/><circle cx="980" cy="244" r="1.1" fill="#d8ff3e" opacity="0.056"/><circle cx="198" cy="290" r="1.2" fill="#d8ff3e" opacity="0.067"/><circle cx="244" cy="290" r="1.3" fill="#d8ff3e" opacity="0.117"/><circle cx="290" cy="290" r="1.4" fill="#d8ff3e" opacity="0.167"/><circle cx="336" cy="290" r="1.5" fill="#d8ff3e" opacity="0.217"/><circle cx="382" cy="290" r="1.7" fill="#d8ff3e" opacity="0.265"/><circle cx="428" cy="290" r="1.8" fill="#d8ff3e" opacity="0.313"/><circle cx="474" cy="290" r="1.9" fill="#d8ff3e" opacity="0.357"/><circle cx="520" cy="290" r="2.0" fill="#d8ff3e" opacity="0.396"/><circle cx="566" cy="290" r="2.0" fill="#d8ff3e" opacity="0.419"/><circle cx="612" cy="290" r="2.0" fill="#d8ff3e" opacity="0.414"/><circle cx="658" cy="290" r="2.0" fill="#d8ff3e" opacity="0.384"/><circle cx="704" cy="290" r="1.9" fill="#d8ff3e" opacity="0.342"/><circle cx="750" cy="290" r="1.7" fill="#d8ff3e" opacity="0.296"/><circle cx="796" cy="290" r="1.6" fill="#d8ff3e" opacity="0.248"/><circle cx="842" cy="290" r="1.5" fill="#d8ff3e" opacity="0.199"/><circle cx="888" cy="290" r="1.4" fill="#d8ff3e" opacity="0.150"/><circle cx="934" cy="290" r="1.2" fill="#d8ff3e" opacity="0.100"/><circle cx="980" cy="290" r="1.1" fill="#d8ff3e" opacity="0.050"/><circle cx="198" cy="336" r="1.1" fill="#d8ff3e" opacity="0.055"/><circle cx="244" cy="336" r="1.3" fill="#d8ff3e" opacity="0.104"/><circle cx="290" cy="336" r="1.4" fill="#d8ff3e" opacity="0.152"/><circle cx="336" cy="336" r="1.5" fill="#d8ff3e" opacity="0.198"/><circle cx="382" cy="336" r="1.6" fill="#d8ff3e" opacity="0.244"/><circle cx="428" cy="336" r="1.7" fill="#d8ff3e" opacity="0.286"/><circle cx="474" cy="336" r="1.8" fill="#d8ff3e" opacity="0.324"/><circle cx="520" cy="336" r="1.9" fill="#d8ff3e" opacity="0.353"/><circle cx="566" cy="336" r="1.9" fill="#d8ff3e" opacity="0.369"/><circle cx="612" cy="336" r="1.9" fill="#d8ff3e" opacity="0.366"/><circle cx="658" cy="336" r="1.9" fill="#d8ff3e" opacity="0.344"/><circle cx="704" cy="336" r="1.8" fill="#d8ff3e" opacity="0.311"/><circle cx="750" cy="336" r="1.7" fill="#d8ff3e" opacity="0.272"/><circle cx="796" cy="336" r="1.6" fill="#d8ff3e" opacity="0.228"/><circle cx="842" cy="336" r="1.5" fill="#d8ff3e" opacity="0.182"/><circle cx="888" cy="336" r="1.3" fill="#d8ff3e" opacity="0.135"/><circle cx="934" cy="336" r="1.2" fill="#d8ff3e" opacity="0.087"/><circle cx="980" cy="336" r="1.1" fill="#d8ff3e" opacity="0.038"/><circle cx="198" cy="382" r="1.1" fill="#d8ff3e" opacity="0.038"/><circle cx="244" cy="382" r="1.2" fill="#d8ff3e" opacity="0.084"/><circle cx="290" cy="382" r="1.3" fill="#d8ff3e" opacity="0.129"/><circle cx="336" cy="382" r="1.4" fill="#d8ff3e" opacity="0.173"/><circle cx="382" cy="382" r="1.5" fill="#d8ff3e" opacity="0.214"/><circle cx="428" cy="382" r="1.6" fill="#d8ff3e" opacity="0.252"/><circle cx="474" cy="382" r="1.7" fill="#d8ff3e" opacity="0.283"/><circle cx="520" cy="382" r="1.8" fill="#d8ff3e" opacity="0.307"/><circle cx="566" cy="382" r="1.8" fill="#d8ff3e" opacity="0.318"/><circle cx="612" cy="382" r="1.8" fill="#d8ff3e" opacity="0.316"/><circle cx="658" cy="382" r="1.7" fill="#d8ff3e" opacity="0.300"/><circle cx="704" cy="382" r="1.7" fill="#d8ff3e" opacity="0.273"/><circle cx="750" cy="382" r="1.6" fill="#d8ff3e" opacity="0.239"/><circle cx="796" cy="382" r="1.5" fill="#d8ff3e" opacity="0.200"/><circle cx="842" cy="382" r="1.4" fill="#d8ff3e" opacity="0.158"/><circle cx="888" cy="382" r="1.3" fill="#d8ff3e" opacity="0.114"/><circle cx="934" cy="382" r="1.2" fill="#d8ff3e" opacity="0.068"/><circle cx="980" cy="382" r="1.1" fill="#d8ff3e" opacity="0.021"/><circle cx="244" cy="428" r="1.1" fill="#d8ff3e" opacity="0.059"/><circle cx="290" cy="428" r="1.3" fill="#d8ff3e" opacity="0.102"/><circle cx="336" cy="428" r="1.4" fill="#d8ff3e" opacity="0.142"/><circle cx="382" cy="428" r="1.4" fill="#d8ff3e" opacity="0.179"/><circle cx="428" cy="428" r="1.5" fill="#d8ff3e" opacity="0.212"/><circle cx="474" cy="428" r="1.6" fill="#d8ff3e" opacity="0.239"/><circle cx="520" cy="428" r="1.6" fill="#d8ff3e" opacity="0.258"/><circle cx="566" cy="428" r="1.7" fill="#d8ff3e" opacity="0.267"/><circle cx="612" cy="428" r="1.7" fill="#d8ff3e" opacity="0.265"/><circle cx="658" cy="428" r="1.6" fill="#d8ff3e" opacity="0.253"/><circle cx="704" cy="428" r="1.6" fill="#d8ff3e" opacity="0.231"/><circle cx="750" cy="428" r="1.5" fill="#d8ff3e" opacity="0.201"/><circle cx="796" cy="428" r="1.4" fill="#d8ff3e" opacity="0.167"/><circle cx="842" cy="428" r="1.3" fill="#d8ff3e" opacity="0.128"/><circle cx="888" cy="428" r="1.2" fill="#d8ff3e" opacity="0.087"/><circle cx="934" cy="428" r="1.1" fill="#d8ff3e" opacity="0.044"/><circle cx="244" cy="474" r="1.1" fill="#d8ff3e" opacity="0.030"/><circle cx="290" cy="474" r="1.2" fill="#d8ff3e" opacity="0.070"/><circle cx="336" cy="474" r="1.3" fill="#d8ff3e" opacity="0.107"/><circle cx="382" cy="474" r="1.4" fill="#d8ff3e" opacity="0.141"/><circle cx="428" cy="474" r="1.4" fill="#d8ff3e" opacity="0.170"/><circle cx="474" cy="474" r="1.5" fill="#d8ff3e" opacity="0.193"/><circle cx="520" cy="474" r="1.5" fill="#d8ff3e" opacity="0.209"/><circle cx="566" cy="474" r="1.5" fill="#d8ff3e" opacity="0.216"/><circle cx="612" cy="474" r="1.5" fill="#d8ff3e" opacity="0.215"/><circle cx="658" cy="474" r="1.5" fill="#d8ff3e" opacity="0.204"/><circle cx="704" cy="474" r="1.5" fill="#d8ff3e" opacity="0.185"/><circle cx="750" cy="474" r="1.4" fill="#d8ff3e" opacity="0.160"/><circle cx="796" cy="474" r="1.3" fill="#d8ff3e" opacity="0.129"/><circle cx="842" cy="474" r="1.2" fill="#d8ff3e" opacity="0.095"/><circle cx="888" cy="474" r="1.1" fill="#d8ff3e" opacity="0.057"/><circle cx="290" cy="520" r="1.1" fill="#d8ff3e" opacity="0.035"/><circle cx="336" cy="520" r="1.2" fill="#d8ff3e" opacity="0.069"/><circle cx="382" cy="520" r="1.2" fill="#d8ff3e" opacity="0.099"/><circle cx="428" cy="520" r="1.3" fill="#d8ff3e" opacity="0.125"/><circle cx="474" cy="520" r="1.4" fill="#d8ff3e" opacity="0.145"/><circle cx="520" cy="520" r="1.4" fill="#d8ff3e" opacity="0.159"/><circle cx="566" cy="520" r="1.4" fill="#d8ff3e" opacity="0.165"/><circle cx="612" cy="520" r="1.4" fill="#d8ff3e" opacity="0.164"/><circle cx="658" cy="520" r="1.4" fill="#d8ff3e" opacity="0.155"/><circle cx="704" cy="520" r="1.3" fill="#d8ff3e" opacity="0.139"/><circle cx="750" cy="520" r="1.3" fill="#d8ff3e" opacity="0.116"/><circle cx="796" cy="520" r="1.2" fill="#d8ff3e" opacity="0.089"/><circle cx="842" cy="520" r="1.1" fill="#d8ff3e" opacity="0.057"/><circle cx="888" cy="520" r="1.1" fill="#d8ff3e" opacity="0.022"/><circle cx="336" cy="566" r="1.1" fill="#d8ff3e" opacity="0.028"/><circle cx="382" cy="566" r="1.1" fill="#d8ff3e" opacity="0.056"/><circle cx="428" cy="566" r="1.2" fill="#d8ff3e" opacity="0.079"/><circle cx="474" cy="566" r="1.2" fill="#d8ff3e" opacity="0.097"/><circle cx="520" cy="566" r="1.3" fill="#d8ff3e" opacity="0.109"/><circle cx="566" cy="566" r="1.3" fill="#d8ff3e" opacity="0.114"/><circle cx="612" cy="566" r="1.3" fill="#d8ff3e" opacity="0.113"/><circle cx="658" cy="566" r="1.3" fill="#d8ff3e" opacity="0.105"/><circle cx="704" cy="566" r="1.2" fill="#d8ff3e" opacity="0.091"/><circle cx="750" cy="566" r="1.2" fill="#d8ff3e" opacity="0.071"/><circle cx="796" cy="566" r="1.1" fill="#d8ff3e" opacity="0.046"/><circle cx="428" cy="612" r="1.1" fill="#d8ff3e" opacity="0.031"/><circle cx="474" cy="612" r="1.1" fill="#d8ff3e" opacity="0.047"/><circle cx="520" cy="612" r="1.1" fill="#d8ff3e" opacity="0.058"/><circle cx="566" cy="612" r="1.2" fill="#d8ff3e" opacity="0.063"/><circle cx="612" cy="612" r="1.2" fill="#d8ff3e" opacity="0.062"/><circle cx="658" cy="612" r="1.1" fill="#d8ff3e" opacity="0.055"/><circle cx="704" cy="612" r="1.1" fill="#d8ff3e" opacity="0.042"/><circle cx="750" cy="612" r="1.1" fill="#d8ff3e" opacity="0.025"/>
<rect width="1200" height="750" fill="url(#vig)"/>
<rect width="1200" height="750" filter="url(#grain)" opacity="0.6"/>
<g font-family="ui-monospace, monospace">
<text x="64" y="88" fill="#d8ff3e" font-size="26" letter-spacing="6" font-weight="700">GUIDES</text>
<text x="64" y="642" fill="#f4f4f1" font-size="66" font-weight="800" letter-spacing="-1" font-family="system-ui, sans-serif">KICKS ON DECK</text>
<text x="64" y="688" fill="#9a9aa0" font-size="22" letter-spacing="4">kicksondeck.store</text>
</g>
</svg>