<svg xmlns="http://www.w3.org/2000/svg" viewBox="0 0 1200 750" width="1200" height="750" role="img" aria-label="Yeezy Slides Sizing — Do They Run Big or Small?">
<defs>
<radialGradient id="glow" cx="53.4%" cy="50.4%" r="60%"><stop offset="0%" stop-color="#d8ff3e" stop-opacity="0.30"/><stop offset="45%" stop-color="#d8ff3e" stop-opacity="0.05"/><stop offset="100%" stop-color="#d8ff3e" stop-opacity="0"/></radialGradient>
<filter id="grain"><feTurbulence type="fractalNoise" baseFrequency="0.9" numOctaves="2" stitchTiles="stitch"/><feColorMatrix type="saturate" values="0"/><feComponentTransfer><feFuncA type="linear" slope="0.05"/></feComponentTransfer></filter>
<linearGradient id="vig" x1="0" y1="0" x2="0" y2="1"><stop offset="0%" stop-color="#000" stop-opacity="0"/><stop offset="100%" stop-color="#000" stop-opacity="0.55"/></linearGradient>
</defs>
<rect width="1200" height="750" fill="#0a0a0b"/>
<rect width="1200" height="750" fill="url(#glow)"/>
<circle cx="382" cy="60" r="1.1" fill="#d8ff3e" opacity="0.044"/><circle cx="428" cy="60" r="1.2" fill="#d8ff3e" opacity="0.075"/><circle cx="474" cy="60" r="1.3" fill="#d8ff3e" opacity="0.101"/><circle cx="520" cy="60" r="1.3" fill="#d8ff3e" opacity="0.122"/><circle cx="566" cy="60" r="1.3" fill="#d8ff3e" opacity="0.137"/><circle cx="612" cy="60" r="1.4" fill="#d8ff3e" opacity="0.145"/><circle cx="658" cy="60" r="1.4" fill="#d8ff3e" opacity="0.146"/><circle cx="704" cy="60" r="1.3" fill="#d8ff3e" opacity="0.140"/><circle cx="750" cy="60" r="1.3" fill="#d8ff3e" opacity="0.126"/><circle cx="796" cy="60" r="1.3" fill="#d8ff3e" opacity="0.107"/><circle cx="842" cy="60" r="1.2" fill="#d8ff3e" opacity="0.082"/><circle cx="888" cy="60" r="1.1" fill="#d8ff3e" opacity="0.053"/><circle cx="336" cy="106" r="1.1" fill="#d8ff3e" opacity="0.046"/><circle cx="382" cy="106" r="1.2" fill="#d8ff3e" opacity="0.083"/><circle cx="428" cy="106" r="1.3" fill="#d8ff3e" opacity="0.116"/><circle cx="474" cy="106" r="1.4" fill="#d8ff3e" opacity="0.145"/><circle cx="520" cy="106" r="1.4" fill="#d8ff3e" opacity="0.169"/><circle cx="566" cy="106" r="1.5" fill="#d8ff3e" opacity="0.186"/><circle cx="612" cy="106" r="1.5" fill="#d8ff3e" opacity="0.196"/><circle cx="658" cy="106" r="1.5" fill="#d8ff3e" opacity="0.197"/><circle cx="704" cy="106" r="1.5" fill="#d8ff3e" opacity="0.190"/><circle cx="750" cy="106" r="1.4" fill="#d8ff3e" opacity="0.174"/><circle cx="796" cy="106" r="1.4" fill="#d8ff3e" opacity="0.152"/><circle cx="842" cy="106" r="1.3" fill="#d8ff3e" opacity="0.124"/><circle cx="888" cy="106" r="1.2" fill="#d8ff3e" opacity="0.092"/><circle cx="934" cy="106" r="1.1" fill="#d8ff3e" opacity="0.056"/><circle cx="290" cy="152" r="1.1" fill="#d8ff3e" opacity="0.036"/><circle cx="336" cy="152" r="1.2" fill="#d8ff3e" opacity="0.078"/><circle cx="382" cy="152" r="1.3" fill="#d8ff3e" opacity="0.118"/><circle cx="428" cy="152" r="1.4" fill="#d8ff3e" opacity="0.155"/><circle cx="474" cy="152" r="1.5" fill="#d8ff3e" opacity="0.188"/><circle cx="520" cy="152" r="1.5" fill="#d8ff3e" opacity="0.215"/><circle cx="566" cy="152" r="1.6" fill="#d8ff3e" opacity="0.235"/><circle cx="612" cy="152" r="1.6" fill="#d8ff3e" opacity="0.247"/><circle cx="658" cy="152" r="1.6" fill="#d8ff3e" opacity="0.248"/><circle cx="704" cy="152" r="1.6" fill="#d8ff3e" opacity="0.239"/><circle cx="750" cy="152" r="1.6" fill="#d8ff3e" opacity="0.221"/><circle cx="796" cy="152" r="1.5" fill="#d8ff3e" opacity="0.196"/><circle cx="842" cy="152" r="1.4" fill="#d8ff3e" opacity="0.164"/><circle cx="888" cy="152" r="1.3" fill="#d8ff3e" opacity="0.128"/><circle cx="934" cy="152" r="1.2" fill="#d8ff3e" opacity="0.089"/><circle cx="980" cy="152" r="1.1" fill="#d8ff3e" opacity="0.047"/><circle cx="290" cy="198" r="1.2" fill="#d8ff3e" opacity="0.062"/><circle cx="336" cy="198" r="1.3" fill="#d8ff3e" opacity="0.106"/><circle cx="382" cy="198" r="1.4" fill="#d8ff3e" opacity="0.150"/><circle cx="428" cy="198" r="1.5" fill="#d8ff3e" opacity="0.190"/><circle cx="474" cy="198" r="1.6" fill="#d8ff3e" opacity="0.227"/><circle cx="520" cy="198" r="1.6" fill="#d8ff3e" opacity="0.259"/><circle cx="566" cy="198" r="1.7" fill="#d8ff3e" opacity="0.283"/><circle cx="612" cy="198" r="1.7" fill="#d8ff3e" opacity="0.297"/><circle cx="658" cy="198" r="1.7" fill="#d8ff3e" opacity="0.299"/><circle cx="704" cy="198" r="1.7" fill="#d8ff3e" opacity="0.288"/><circle cx="750" cy="198" r="1.7" fill="#d8ff3e" opacity="0.266"/><circle cx="796" cy="198" r="1.6" fill="#d8ff3e" opacity="0.236"/><circle cx="842" cy="198" r="1.5" fill="#d8ff3e" opacity="0.200"/><circle cx="888" cy="198" r="1.4" fill="#d8ff3e" opacity="0.160"/><circle cx="934" cy="198" r="1.3" fill="#d8ff3e" opacity="0.118"/><circle cx="980" cy="198" r="1.2" fill="#d8ff3e" opacity="0.074"/><circle cx="1026" cy="198" r="1.1" fill="#d8ff3e" opacity="0.028"/><circle cx="244" cy="244" r="1.1" fill="#d8ff3e" opacity="0.034"/><circle cx="290" cy="244" r="1.2" fill="#d8ff3e" opacity="0.083"/><circle cx="336" cy="244" r="1.3" fill="#d8ff3e" opacity="0.130"/><circle cx="382" cy="244" r="1.4" fill="#d8ff3e" opacity="0.176"/><circle cx="428" cy="244" r="1.6" fill="#d8ff3e" opacity="0.220"/><circle cx="474" cy="244" r="1.7" fill="#d8ff3e" opacity="0.262"/><circle cx="520" cy="244" r="1.7" fill="#d8ff3e" opacity="0.299"/><circle cx="566" cy="244" r="1.8" fill="#d8ff3e" opacity="0.329"/><circle cx="612" cy="244" r="1.9" fill="#d8ff3e" opacity="0.348"/><circle cx="658" cy="244" r="1.9" fill="#d8ff3e" opacity="0.350"/><circle cx="704" cy="244" r="1.8" fill="#d8ff3e" opacity="0.335"/><circle cx="750" cy="244" r="1.8" fill="#d8ff3e" opacity="0.308"/><circle cx="796" cy="244" r="1.7" fill="#d8ff3e" opacity="0.272"/><circle cx="842" cy="244" r="1.6" fill="#d8ff3e" opacity="0.232"/><circle cx="888" cy="244" r="1.5" fill="#d8ff3e" opacity="0.188"/><circle cx="934" cy="244" r="1.4" fill="#d8ff3e" opacity="0.142"/><circle cx="980" cy="244" r="1.2" fill="#d8ff3e" opacity="0.095"/><circle cx="1026" cy="244" r="1.1" fill="#d8ff3e" opacity="0.047"/><circle cx="244" cy="290" r="1.1" fill="#d8ff3e" opacity="0.048"/><circle cx="290" cy="290" r="1.2" fill="#d8ff3e" opacity="0.098"/><circle cx="336" cy="290" r="1.4" fill="#d8ff3e" opacity="0.147"/><circle cx="382" cy="290" r="1.5" fill="#d8ff3e" opacity="0.196"/><circle cx="428" cy="290" r="1.6" fill="#d8ff3e" opacity="0.244"/><circle cx="474" cy="290" r="1.7" fill="#d8ff3e" opacity="0.290"/><circle cx="520" cy="290" r="1.8" fill="#d8ff3e" opacity="0.334"/><circle cx="566" cy="290" r="1.9" fill="#d8ff3e" opacity="0.372"/><circle cx="612" cy="290" r="2.0" fill="#d8ff3e" opacity="0.397"/><circle cx="658" cy="290" r="2.0" fill="#d8ff3e" opacity="0.400"/><circle cx="704" cy="290" r="1.9" fill="#d8ff3e" opacity="0.380"/><circle cx="750" cy="290" r="1.9" fill="#d8ff3e" opacity="0.344"/><circle cx="796" cy="290" r="1.8" fill="#d8ff3e" opacity="0.302"/><circle cx="842" cy="290" r="1.6" fill="#d8ff3e" opacity="0.256"/><circle cx="888" cy="290" r="1.5" fill="#d8ff3e" opacity="0.209"/><circle cx="934" cy="290" r="1.4" fill="#d8ff3e" opacity="0.160"/><circle cx="980" cy="290" r="1.3" fill="#d8ff3e" opacity="0.111"/><circle cx="1026" cy="290" r="1.2" fill="#d8ff3e" opacity="0.061"/><circle cx="244" cy="336" r="1.1" fill="#d8ff3e" opacity="0.056"/><circle cx="290" cy="336" r="1.3" fill="#d8ff3e" opacity="0.107"/><circle cx="336" cy="336" r="1.4" fill="#d8ff3e" opacity="0.158"/><circle cx="382" cy="336" r="1.5" fill="#d8ff3e" opacity="0.208"/><circle cx="428" cy="336" r="1.6" fill="#d8ff3e" opacity="0.259"/><circle cx="474" cy="336" r="1.8" fill="#d8ff3e" opacity="0.309"/><circle cx="520" cy="336" r="1.9" fill="#d8ff3e" opacity="0.358"/><circle cx="566" cy="336" r="2.0" fill="#d8ff3e" opacity="0.404"/><circle cx="612" cy="336" r="2.1" fill="#d8ff3e" opacity="0.443"/><circle cx="658" cy="336" r="2.1" fill="#d8ff3e" opacity="0.450"/><circle cx="704" cy="336" r="2.0" fill="#d8ff3e" opacity="0.416"/><circle cx="750" cy="336" r="1.9" fill="#d8ff3e" opacity="0.370"/><circle cx="796" cy="336" r="1.8" fill="#d8ff3e" opacity="0.322"/><circle cx="842" cy="336" r="1.7" fill="#d8ff3e" opacity="0.272"/><circle cx="888" cy="336" r="1.6" fill="#d8ff3e" opacity="0.222"/><circle cx="934" cy="336" r="1.4" fill="#d8ff3e" opacity="0.171"/><circle cx="980" cy="336" r="1.3" fill="#d8ff3e" opacity="0.120"/><circle cx="1026" cy="336" r="1.2" fill="#d8ff3e" opacity="0.070"/><circle cx="244" cy="382" r="1.1" fill="#d8ff3e" opacity="0.059"/><circle cx="290" cy="382" r="1.3" fill="#d8ff3e" opacity="0.110"/><circle cx="336" cy="382" r="1.4" fill="#d8ff3e" opacity="0.161"/><circle cx="382" cy="382" r="1.5" fill="#d8ff3e" opacity="0.212"/><circle cx="428" cy="382" r="1.7" fill="#d8ff3e" opacity="0.263"/><circle cx="474" cy="382" r="1.8" fill="#d8ff3e" opacity="0.314"/><circle cx="520" cy="382" r="1.9" fill="#d8ff3e" opacity="0.365"/><circle cx="566" cy="382" r="2.0" fill="#d8ff3e" opacity="0.417"/><circle cx="612" cy="382" r="2.2" fill="#d8ff3e" opacity="0.467"/><circle cx="658" cy="382" r="2.2" fill="#d8ff3e" opacity="0.481"/><circle cx="704" cy="382" r="2.1" fill="#d8ff3e" opacity="0.430"/><circle cx="750" cy="382" r="1.9" fill="#d8ff3e" opacity="0.379"/><circle cx="796" cy="382" r="1.8" fill="#d8ff3e" opacity="0.328"/><circle cx="842" cy="382" r="1.7" fill="#d8ff3e" opacity="0.277"/><circle cx="888" cy="382" r="1.6" fill="#d8ff3e" opacity="0.226"/><circle cx="934" cy="382" r="1.4" fill="#d8ff3e" opacity="0.174"/><circle cx="980" cy="382" r="1.3" fill="#d8ff3e" opacity="0.123"/><circle cx="1026" cy="382" r="1.2" fill="#d8ff3e" opacity="0.072"/><circle cx="1072" cy="382" r="1.1" fill="#d8ff3e" opacity="0.021"/><circle cx="244" cy="428" r="1.1" fill="#d8ff3e" opacity="0.055"/><circle cx="290" cy="428" r="1.3" fill="#d8ff3e" opacity="0.106"/><circle cx="336" cy="428" r="1.4" fill="#d8ff3e" opacity="0.157"/><circle cx="382" cy="428" r="1.5" fill="#d8ff3e" opacity="0.207"/><circle cx="428" cy="428" r="1.6" fill="#d8ff3e" opacity="0.257"/><circle cx="474" cy="428" r="1.8" fill="#d8ff3e" opacity="0.306"/><circle cx="520" cy="428" r="1.9" fill="#d8ff3e" opacity="0.355"/><circle cx="566" cy="428" r="2.0" fill="#d8ff3e" opacity="0.400"/><circle cx="612" cy="428" r="2.1" fill="#d8ff3e" opacity="0.436"/><circle cx="658" cy="428" r="2.1" fill="#d8ff3e" opacity="0.441"/><circle cx="704" cy="428" r="2.0" fill="#d8ff3e" opacity="0.411"/><circle cx="750" cy="428" r="1.9" fill="#d8ff3e" opacity="0.367"/><circle cx="796" cy="428" r="1.8" fill="#d8ff3e" opacity="0.319"/><circle cx="842" cy="428" r="1.7" fill="#d8ff3e" opacity="0.270"/><circle cx="888" cy="428" r="1.5" fill="#d8ff3e" opacity="0.220"/><circle cx="934" cy="428" r="1.4" fill="#d8ff3e" opacity="0.170"/><circle cx="980" cy="428" r="1.3" fill="#d8ff3e" opacity="0.119"/><circle cx="1026" cy="428" r="1.2" fill="#d8ff3e" opacity="0.069"/><circle cx="244" cy="474" r="1.1" fill="#d8ff3e" opacity="0.046"/><circle cx="290" cy="474" r="1.2" fill="#d8ff3e" opacity="0.096"/><circle cx="336" cy="474" r="1.4" fill="#d8ff3e" opacity="0.145"/><circle cx="382" cy="474" r="1.5" fill="#d8ff3e" opacity="0.193"/><circle cx="428" cy="474" r="1.6" fill="#d8ff3e" opacity="0.240"/><circle cx="474" cy="474" r="1.7" fill="#d8ff3e" opacity="0.286"/><circle cx="520" cy="474" r="1.8" fill="#d8ff3e" opacity="0.328"/><circle cx="566" cy="474" r="1.9" fill="#d8ff3e" opacity="0.365"/><circle cx="612" cy="474" r="2.0" fill="#d8ff3e" opacity="0.389"/><circle cx="658" cy="474" r="2.0" fill="#d8ff3e" opacity="0.392"/><circle cx="704" cy="474" r="1.9" fill="#d8ff3e" opacity="0.372"/><circle cx="750" cy="474" r="1.8" fill="#d8ff3e" opacity="0.339"/><circle cx="796" cy="474" r="1.7" fill="#d8ff3e" opacity="0.297"/><circle cx="842" cy="474" r="1.6" fill="#d8ff3e" opacity="0.253"/><circle cx="888" cy="474" r="1.5" fill="#d8ff3e" opacity="0.206"/><circle cx="934" cy="474" r="1.4" fill="#d8ff3e" opacity="0.157"/><circle cx="980" cy="474" r="1.3" fill="#d8ff3e" opacity="0.109"/><circle cx="1026" cy="474" r="1.1" fill="#d8ff3e" opacity="0.059"/><circle cx="244" cy="520" r="1.1" fill="#d8ff3e" opacity="0.032"/><circle cx="290" cy="520" r="1.2" fill="#d8ff3e" opacity="0.079"/><circle cx="336" cy="520" r="1.3" fill="#d8ff3e" opacity="0.126"/><circle cx="382" cy="520" r="1.4" fill="#d8ff3e" opacity="0.172"/><circle cx="428" cy="520" r="1.5" fill="#d8ff3e" opacity="0.216"/><circle cx="474" cy="520" r="1.6" fill="#d8ff3e" opacity="0.256"/><circle cx="520" cy="520" r="1.7" fill="#d8ff3e" opacity="0.293"/><circle cx="566" cy="520" r="1.8" fill="#d8ff3e" opacity="0.322"/><circle cx="612" cy="520" r="1.8" fill="#d8ff3e" opacity="0.339"/><circle cx="658" cy="520" r="1.9" fill="#d8ff3e" opacity="0.341"/><circle cx="704" cy="520" r="1.8" fill="#d8ff3e" opacity="0.327"/><circle cx="750" cy="520" r="1.8" fill="#d8ff3e" opacity="0.301"/><circle cx="796" cy="520" r="1.7" fill="#d8ff3e" opacity="0.266"/><circle cx="842" cy="520" r="1.6" fill="#d8ff3e" opacity="0.227"/><circle cx="888" cy="520" r="1.5" fill="#d8ff3e" opacity="0.183"/><circle cx="934" cy="520" r="1.3" fill="#d8ff3e" opacity="0.138"/><circle cx="980" cy="520" r="1.2" fill="#d8ff3e" opacity="0.092"/><circle cx="1026" cy="520" r="1.1" fill="#d8ff3e" opacity="0.044"/><circle cx="290" cy="566" r="1.1" fill="#d8ff3e" opacity="0.058"/><circle cx="336" cy="566" r="1.3" fill="#d8ff3e" opacity="0.102"/><circle cx="382" cy="566" r="1.4" fill="#d8ff3e" opacity="0.144"/><circle cx="428" cy="566" r="1.5" fill="#d8ff3e" opacity="0.184"/><circle cx="474" cy="566" r="1.6" fill="#d8ff3e" opacity="0.221"/><circle cx="520" cy="566" r="1.6" fill="#d8ff3e" opacity="0.252"/><circle cx="566" cy="566" r="1.7" fill="#d8ff3e" opacity="0.275"/><circle cx="612" cy="566" r="1.7" fill="#d8ff3e" opacity="0.289"/><circle cx="658" cy="566" r="1.7" fill="#d8ff3e" opacity="0.290"/><circle cx="704" cy="566" r="1.7" fill="#d8ff3e" opacity="0.280"/><circle cx="750" cy="566" r="1.6" fill="#d8ff3e" opacity="0.259"/><circle cx="796" cy="566" r="1.6" fill="#d8ff3e" opacity="0.229"/><circle cx="842" cy="566" r="1.5" fill="#d8ff3e" opacity="0.194"/><circle cx="888" cy="566" r="1.4" fill="#d8ff3e" opacity="0.155"/><circle cx="934" cy="566" r="1.3" fill="#d8ff3e" opacity="0.113"/><circle cx="980" cy="566" r="1.2" fill="#d8ff3e" opacity="0.069"/><circle cx="1026" cy="566" r="1.1" fill="#d8ff3e" opacity="0.024"/><circle cx="290" cy="612" r="1.1" fill="#d8ff3e" opacity="0.031"/><circle cx="336" cy="612" r="1.2" fill="#d8ff3e" opacity="0.073"/><circle cx="382" cy="612" r="1.3" fill="#d8ff3e" opacity="0.112"/><circle cx="428" cy="612" r="1.4" fill="#d8ff3e" opacity="0.148"/><circle cx="474" cy="612" r="1.5" fill="#d8ff3e" opacity="0.181"/><circle cx="520" cy="612" r="1.5" fill="#d8ff3e" opacity="0.207"/><circle cx="566" cy="612" r="1.6" fill="#d8ff3e" opacity="0.227"/><circle cx="612" cy="612" r="1.6" fill="#d8ff3e" opacity="0.238"/><circle cx="658" cy="612" r="1.6" fill="#d8ff3e" opacity="0.239"/><circle cx="704" cy="612" r="1.6" fill="#d8ff3e" opacity="0.231"/><circle cx="750" cy="612" r="1.5" fill="#d8ff3e" opacity="0.213"/><circle cx="796" cy="612" r="1.5" fill="#d8ff3e" opacity="0.188"/><circle cx="842" cy="612" r="1.4" fill="#d8ff3e" opacity="0.157"/><circle cx="888" cy="612" r="1.3" fill="#d8ff3e" opacity="0.122"/><circle cx="934" cy="612" r="1.2" fill="#d8ff3e" opacity="0.083"/><circle cx="980" cy="612" r="1.1" fill="#d8ff3e" opacity="0.042"/><circle cx="336" cy="658" r="1.1" fill="#d8ff3e" opacity="0.040"/><circle cx="382" cy="658" r="1.2" fill="#d8ff3e" opacity="0.076"/><circle cx="428" cy="658" r="1.3" fill="#d8ff3e" opacity="0.109"/><circle cx="474" cy="658" r="1.3" fill="#d8ff3e" opacity="0.138"/><circle cx="520" cy="658" r="1.4" fill="#d8ff3e" opacity="0.161"/><circle cx="566" cy="658" r="1.4" fill="#d8ff3e" opacity="0.178"/><circle cx="612" cy="658" r="1.5" fill="#d8ff3e" opacity="0.187"/><circle cx="658" cy="658" r="1.5" fill="#d8ff3e" opacity="0.188"/><circle cx="704" cy="658" r="1.5" fill="#d8ff3e" opacity="0.181"/><circle cx="750" cy="658" r="1.4" fill="#d8ff3e" opacity="0.166"/><circle cx="796" cy="658" r="1.4" fill="#d8ff3e" opacity="0.144"/><circle cx="842" cy="658" r="1.3" fill="#d8ff3e" opacity="0.117"/><circle cx="888" cy="658" r="1.2" fill="#d8ff3e" opacity="0.085"/><circle cx="934" cy="658" r="1.1" fill="#d8ff3e" opacity="0.050"/><circle cx="382" cy="704" r="1.1" fill="#d8ff3e" opacity="0.037"/><circle cx="428" cy="704" r="1.2" fill="#d8ff3e" opacity="0.067"/><circle cx="474" cy="704" r="1.2" fill="#d8ff3e" opacity="0.093"/><circle cx="520" cy="704" r="1.3" fill="#d8ff3e" opacity="0.114"/><circle cx="566" cy="704" r="1.3" fill="#d8ff3e" opacity="0.128"/><circle cx="612" cy="704" r="1.3" fill="#d8ff3e" opacity="0.136"/><circle cx="658" cy="704" r="1.3" fill="#d8ff3e" opacity="0.137"/><circle cx="704" cy="704" r="1.3" fill="#d8ff3e" opacity="0.131"/><circle cx="750" cy="704" r="1.3" fill="#d8ff3e" opacity="0.118"/><circle cx="796" cy="704" r="1.2" fill="#d8ff3e" opacity="0.099"/><circle cx="842" cy="704" r="1.2" fill="#d8ff3e" opacity="0.074"/><circle cx="888" cy="704" r="1.1" fill="#d8ff3e" opacity="0.046"/>
<rect width="1200" height="750" fill="url(#vig)"/>
<rect width="1200" height="750" filter="url(#grain)" opacity="0.6"/>
<g font-family="ui-monospace, monospace">
<text x="64" y="88" fill="#d8ff3e" font-size="26" letter-spacing="6" font-weight="700">SIZING</text>
<text x="64" y="642" fill="#f4f4f1" font-size="66" font-weight="800" letter-spacing="-1" font-family="system-ui, sans-serif">KICKS ON DECK</text>
<text x="64" y="688" fill="#9a9aa0" font-size="22" letter-spacing="4">kicksondeck.store</text>
</g>
</svg>