<svg xmlns="http://www.w3.org/2000/svg" viewBox="0 0 1200 750" width="1200" height="750" role="img" aria-label="Yeezy 350 V2 Sizing — Do They Fit True to Size?">
<defs>
<filter id="grain"><feTurbulence type="fractalNoise" baseFrequency="0.9" numOctaves="2" stitchTiles="stitch"/><feColorMatrix type="saturate" values="0"/><feComponentTransfer><feFuncA type="linear" slope="0.05"/></feComponentTransfer></filter>
<radialGradient id="floor" cx="50%" cy="50%" r="50%"><stop offset="0%" stop-color="#d8ff3e" stop-opacity="0.28"/><stop offset="100%" stop-color="#d8ff3e" stop-opacity="0"/></radialGradient>
<radialGradient id="wash" cx="78%" cy="30%" r="70%"><stop offset="0%" stop-color="#d8ff3e" stop-opacity="0.10"/><stop offset="100%" stop-color="#d8ff3e" stop-opacity="0"/></radialGradient>
<clipPath id="shoeclip"><path d="M22,214 C16,182 34,148 84,122 C138,94 216,76 296,80 C382,84 450,116 488,160 C504,178 510,196 505,212 C500,229 480,237 450,239 L84,245 C48,245 27,237 22,214 Z"/></clipPath>
</defs>
<rect width="1200" height="750" fill="#0a0a0b"/>
<rect width="1200" height="750" fill="url(#wash)"/>
<circle cx="660" cy="70" r="1.6" fill="#d8ff3e" opacity="0.095"/><circle cx="712" cy="70" r="1.6" fill="#d8ff3e" opacity="0.055"/><circle cx="764" cy="70" r="1.6" fill="#d8ff3e" opacity="0.093"/><circle cx="816" cy="70" r="1.6" fill="#d8ff3e" opacity="0.071"/><circle cx="868" cy="70" r="1.6" fill="#d8ff3e" opacity="0.103"/><circle cx="920" cy="70" r="1.6" fill="#d8ff3e" opacity="0.157"/><circle cx="972" cy="70" r="1.6" fill="#d8ff3e" opacity="0.164"/><circle cx="1024" cy="70" r="1.6" fill="#d8ff3e" opacity="0.148"/><circle cx="1076" cy="70" r="1.6" fill="#d8ff3e" opacity="0.144"/><circle cx="1128" cy="70" r="1.6" fill="#d8ff3e" opacity="0.098"/><circle cx="660" cy="122" r="1.6" fill="#d8ff3e" opacity="0.052"/><circle cx="712" cy="122" r="1.6" fill="#d8ff3e" opacity="0.113"/><circle cx="764" cy="122" r="1.6" fill="#d8ff3e" opacity="0.164"/><circle cx="816" cy="122" r="1.6" fill="#d8ff3e" opacity="0.109"/><circle cx="868" cy="122" r="1.6" fill="#d8ff3e" opacity="0.068"/><circle cx="920" cy="122" r="1.6" fill="#d8ff3e" opacity="0.163"/><circle cx="972" cy="122" r="1.6" fill="#d8ff3e" opacity="0.053"/><circle cx="1024" cy="122" r="1.6" fill="#d8ff3e" opacity="0.097"/><circle cx="1076" cy="122" r="1.6" fill="#d8ff3e" opacity="0.107"/><circle cx="1128" cy="122" r="1.6" fill="#d8ff3e" opacity="0.088"/><circle cx="660" cy="174" r="1.6" fill="#d8ff3e" opacity="0.151"/><circle cx="712" cy="174" r="1.6" fill="#d8ff3e" opacity="0.097"/><circle cx="764" cy="174" r="1.6" fill="#d8ff3e" opacity="0.129"/><circle cx="816" cy="174" r="1.6" fill="#d8ff3e" opacity="0.139"/><circle cx="868" cy="174" r="1.6" fill="#d8ff3e" opacity="0.068"/><circle cx="920" cy="174" r="1.6" fill="#d8ff3e" opacity="0.135"/><circle cx="972" cy="174" r="1.6" fill="#d8ff3e" opacity="0.124"/><circle cx="1024" cy="174" r="1.6" fill="#d8ff3e" opacity="0.083"/><circle cx="1076" cy="174" r="1.6" fill="#d8ff3e" opacity="0.097"/><circle cx="1128" cy="174" r="1.6" fill="#d8ff3e" opacity="0.093"/><circle cx="660" cy="226" r="1.6" fill="#d8ff3e" opacity="0.101"/><circle cx="712" cy="226" r="1.6" fill="#d8ff3e" opacity="0.119"/><circle cx="764" cy="226" r="1.6" fill="#d8ff3e" opacity="0.156"/><circle cx="816" cy="226" r="1.6" fill="#d8ff3e" opacity="0.077"/><circle cx="868" cy="226" r="1.6" fill="#d8ff3e" opacity="0.065"/><circle cx="920" cy="226" r="1.6" fill="#d8ff3e" opacity="0.093"/><circle cx="972" cy="226" r="1.6" fill="#d8ff3e" opacity="0.122"/><circle cx="1024" cy="226" r="1.6" fill="#d8ff3e" opacity="0.132"/><circle cx="1076" cy="226" r="1.6" fill="#d8ff3e" opacity="0.094"/><circle cx="1128" cy="226" r="1.6" fill="#d8ff3e" opacity="0.132"/><circle cx="660" cy="278" r="1.6" fill="#d8ff3e" opacity="0.149"/><circle cx="712" cy="278" r="1.6" fill="#d8ff3e" opacity="0.122"/><circle cx="764" cy="278" r="1.6" fill="#d8ff3e" opacity="0.084"/><circle cx="816" cy="278" r="1.6" fill="#d8ff3e" opacity="0.160"/><circle cx="868" cy="278" r="1.6" fill="#d8ff3e" opacity="0.095"/><circle cx="920" cy="278" r="1.6" fill="#d8ff3e" opacity="0.098"/><circle cx="972" cy="278" r="1.6" fill="#d8ff3e" opacity="0.152"/><circle cx="1024" cy="278" r="1.6" fill="#d8ff3e" opacity="0.148"/><circle cx="1076" cy="278" r="1.6" fill="#d8ff3e" opacity="0.065"/><circle cx="1128" cy="278" r="1.6" fill="#d8ff3e" opacity="0.126"/><circle cx="660" cy="330" r="1.6" fill="#d8ff3e" opacity="0.131"/><circle cx="712" cy="330" r="1.6" fill="#d8ff3e" opacity="0.071"/><circle cx="764" cy="330" r="1.6" fill="#d8ff3e" opacity="0.067"/><circle cx="816" cy="330" r="1.6" fill="#d8ff3e" opacity="0.076"/><circle cx="868" cy="330" r="1.6" fill="#d8ff3e" opacity="0.059"/><circle cx="920" cy="330" r="1.6" fill="#d8ff3e" opacity="0.167"/><circle cx="972" cy="330" r="1.6" fill="#d8ff3e" opacity="0.115"/><circle cx="1024" cy="330" r="1.6" fill="#d8ff3e" opacity="0.080"/><circle cx="1076" cy="330" r="1.6" fill="#d8ff3e" opacity="0.142"/><circle cx="1128" cy="330" r="1.6" fill="#d8ff3e" opacity="0.149"/><circle cx="660" cy="382" r="1.6" fill="#d8ff3e" opacity="0.160"/><circle cx="712" cy="382" r="1.6" fill="#d8ff3e" opacity="0.063"/><circle cx="764" cy="382" r="1.6" fill="#d8ff3e" opacity="0.109"/><circle cx="816" cy="382" r="1.6" fill="#d8ff3e" opacity="0.097"/><circle cx="868" cy="382" r="1.6" fill="#d8ff3e" opacity="0.051"/><circle cx="920" cy="382" r="1.6" fill="#d8ff3e" opacity="0.073"/><circle cx="972" cy="382" r="1.6" fill="#d8ff3e" opacity="0.118"/><circle cx="1024" cy="382" r="1.6" fill="#d8ff3e" opacity="0.151"/><circle cx="1076" cy="382" r="1.6" fill="#d8ff3e" opacity="0.149"/><circle cx="1128" cy="382" r="1.6" fill="#d8ff3e" opacity="0.120"/><circle cx="660" cy="434" r="1.6" fill="#d8ff3e" opacity="0.057"/><circle cx="712" cy="434" r="1.6" fill="#d8ff3e" opacity="0.132"/><circle cx="764" cy="434" r="1.6" fill="#d8ff3e" opacity="0.120"/><circle cx="816" cy="434" r="1.6" fill="#d8ff3e" opacity="0.099"/><circle cx="868" cy="434" r="1.6" fill="#d8ff3e" opacity="0.059"/><circle cx="920" cy="434" r="1.6" fill="#d8ff3e" opacity="0.105"/><circle cx="972" cy="434" r="1.6" fill="#d8ff3e" opacity="0.169"/><circle cx="1024" cy="434" r="1.6" fill="#d8ff3e" opacity="0.134"/><circle cx="1076" cy="434" r="1.6" fill="#d8ff3e" opacity="0.105"/><circle cx="1128" cy="434" r="1.6" fill="#d8ff3e" opacity="0.068"/><circle cx="660" cy="486" r="1.6" fill="#d8ff3e" opacity="0.151"/><circle cx="712" cy="486" r="1.6" fill="#d8ff3e" opacity="0.064"/><circle cx="764" cy="486" r="1.6" fill="#d8ff3e" opacity="0.141"/><circle cx="816" cy="486" r="1.6" fill="#d8ff3e" opacity="0.091"/><circle cx="868" cy="486" r="1.6" fill="#d8ff3e" opacity="0.163"/><circle cx="920" cy="486" r="1.6" fill="#d8ff3e" opacity="0.133"/><circle cx="972" cy="486" r="1.6" fill="#d8ff3e" opacity="0.088"/><circle cx="1024" cy="486" r="1.6" fill="#d8ff3e" opacity="0.090"/><circle cx="1076" cy="486" r="1.6" fill="#d8ff3e" opacity="0.140"/><circle cx="1128" cy="486" r="1.6" fill="#d8ff3e" opacity="0.117"/><circle cx="660" cy="538" r="1.6" fill="#d8ff3e" opacity="0.163"/><circle cx="712" cy="538" r="1.6" fill="#d8ff3e" opacity="0.167"/><circle cx="764" cy="538" r="1.6" fill="#d8ff3e" opacity="0.100"/><circle cx="816" cy="538" r="1.6" fill="#d8ff3e" opacity="0.089"/><circle cx="868" cy="538" r="1.6" fill="#d8ff3e" opacity="0.084"/><circle cx="920" cy="538" r="1.6" fill="#d8ff3e" opacity="0.135"/><circle cx="972" cy="538" r="1.6" fill="#d8ff3e" opacity="0.160"/><circle cx="1024" cy="538" r="1.6" fill="#d8ff3e" opacity="0.105"/><circle cx="1076" cy="538" r="1.6" fill="#d8ff3e" opacity="0.064"/><circle cx="1128" cy="538" r="1.6" fill="#d8ff3e" opacity="0.075"/><circle cx="660" cy="590" r="1.6" fill="#d8ff3e" opacity="0.122"/><circle cx="712" cy="590" r="1.6" fill="#d8ff3e" opacity="0.164"/><circle cx="764" cy="590" r="1.6" fill="#d8ff3e" opacity="0.056"/><circle cx="816" cy="590" r="1.6" fill="#d8ff3e" opacity="0.119"/><circle cx="868" cy="590" r="1.6" fill="#d8ff3e" opacity="0.086"/><circle cx="920" cy="590" r="1.6" fill="#d8ff3e" opacity="0.065"/><circle cx="972" cy="590" r="1.6" fill="#d8ff3e" opacity="0.079"/><circle cx="1024" cy="590" r="1.6" fill="#d8ff3e" opacity="0.167"/><circle cx="1076" cy="590" r="1.6" fill="#d8ff3e" opacity="0.148"/><circle cx="1128" cy="590" r="1.6" fill="#d8ff3e" opacity="0.076"/><circle cx="660" cy="642" r="1.6" fill="#d8ff3e" opacity="0.097"/><circle cx="712" cy="642" r="1.6" fill="#d8ff3e" opacity="0.070"/><circle cx="764" cy="642" r="1.6" fill="#d8ff3e" opacity="0.100"/><circle cx="816" cy="642" r="1.6" fill="#d8ff3e" opacity="0.085"/><circle cx="868" cy="642" r="1.6" fill="#d8ff3e" opacity="0.159"/><circle cx="920" cy="642" r="1.6" fill="#d8ff3e" opacity="0.082"/><circle cx="972" cy="642" r="1.6" fill="#d8ff3e" opacity="0.131"/><circle cx="1024" cy="642" r="1.6" fill="#d8ff3e" opacity="0.108"/><circle cx="1076" cy="642" r="1.6" fill="#d8ff3e" opacity="0.055"/><circle cx="1128" cy="642" r="1.6" fill="#d8ff3e" opacity="0.155"/>
<g transform="translate(620,330) rotate(-8)">
  <ellipse cx="270" cy="268" rx="290" ry="42" fill="url(#floor)"/>
  <path d="M22,214 C16,182 34,148 84,122 C138,94 216,76 296,80 C382,84 450,116 488,160 C504,178 510,196 505,212 C500,229 480,237 450,239 L84,245 C48,245 27,237 22,214 Z" fill="#16161a" stroke="#d8ff3e" stroke-width="3"/>
  <g clip-path="url(#shoeclip)"><path d="M0,70 C 140,58 380,84 540,64" fill="none" stroke="#d8ff3e" stroke-width="1.1" opacity="0.16"/><path d="M0,88 C 140,76 380,102 540,82" fill="none" stroke="#d8ff3e" stroke-width="1.1" opacity="0.16"/><path d="M0,106 C 140,94 380,120 540,100" fill="none" stroke="#d8ff3e" stroke-width="1.1" opacity="0.16"/><path d="M0,124 C 140,112 380,138 540,118" fill="none" stroke="#d8ff3e" stroke-width="1.1" opacity="0.16"/><path d="M0,142 C 140,130 380,156 540,136" fill="none" stroke="#d8ff3e" stroke-width="1.1" opacity="0.16"/><path d="M0,160 C 140,148 380,174 540,154" fill="none" stroke="#d8ff3e" stroke-width="1.1" opacity="0.16"/><path d="M0,178 C 140,166 380,192 540,172" fill="none" stroke="#d8ff3e" stroke-width="1.1" opacity="0.16"/><path d="M0,196 C 140,184 380,210 540,190" fill="none" stroke="#d8ff3e" stroke-width="1.1" opacity="0.16"/><path d="M0,214 C 140,202 380,228 540,208" fill="none" stroke="#d8ff3e" stroke-width="1.1" opacity="0.16"/><path d="M0,232 C 140,220 380,246 540,226" fill="none" stroke="#d8ff3e" stroke-width="1.1" opacity="0.16"/><path d="M0,250 C 140,238 380,264 540,244" fill="none" stroke="#d8ff3e" stroke-width="1.1" opacity="0.16"/></g>
  <path d="M26,204 C130,226 390,230 500,194" fill="none" stroke="#0a0a0b" stroke-width="7" opacity="0.85"/><path d="M96,120 C150,158 210,170 296,166" fill="none" stroke="#d8ff3e" stroke-width="2.4" opacity="0.5"/><ellipse cx="112" cy="112" rx="34" ry="14" fill="none" stroke="#d8ff3e" stroke-width="2.4" opacity="0.6" transform="rotate(-14 112 112)"/>
</g>
<g font-family="ui-monospace, monospace">
  <rect x="60" y="64" rx="17" height="34" width="130" fill="#d8ff3e"/>
  <text x="125" y="87" fill="#0a0a0b" font-size="19" letter-spacing="4" font-weight="700" text-anchor="middle">SIZING</text>
</g>
<g font-family="system-ui, sans-serif" font-weight="800" fill="#f4f4f1" letter-spacing="-1">
  <text x="62" y="300" font-size="58">YEEZY 350 V2</text>
  <text x="62" y="370" font-size="58">SIZING - DO</text>
  <text x="62" y="440" font-size="58">THEY FIT TRUE…</text>
</g>
<line x1="62" y1="632" x2="342" y2="632" stroke="#d8ff3e" stroke-width="3"/>
<g font-family="ui-monospace, monospace">
  <text x="62" y="676" fill="#f4f4f1" font-size="30" font-weight="800" letter-spacing="1" font-family="system-ui, sans-serif">KICKS ON DECK</text>
  <text x="62" y="708" fill="#9a9aa0" font-size="19" letter-spacing="4">KICKSONDECK.STORE</text>
</g>
<rect width="1200" height="750" filter="url(#grain)" opacity="0.55"/>
</svg>