<svg xmlns="http://www.w3.org/2000/svg" viewBox="0 0 1200 750" width="1200" height="750" role="img" aria-label="Yeezy Foam Runner Sizing — Do They Run Big or Small?">
<defs>
<filter id="grain"><feTurbulence type="fractalNoise" baseFrequency="0.9" numOctaves="2" stitchTiles="stitch"/><feColorMatrix type="saturate" values="0"/><feComponentTransfer><feFuncA type="linear" slope="0.05"/></feComponentTransfer></filter>
<radialGradient id="floor" cx="50%" cy="50%" r="50%"><stop offset="0%" stop-color="#d8ff3e" stop-opacity="0.28"/><stop offset="100%" stop-color="#d8ff3e" stop-opacity="0"/></radialGradient>
<radialGradient id="wash" cx="78%" cy="30%" r="70%"><stop offset="0%" stop-color="#d8ff3e" stop-opacity="0.10"/><stop offset="100%" stop-color="#d8ff3e" stop-opacity="0"/></radialGradient>
<clipPath id="shoeclip"><path d="M26,206 C10,162 30,110 90,82 C158,50 248,46 326,70 C404,94 470,138 492,180 C506,208 496,232 460,238 L76,244 C42,244 34,228 26,206 Z"/></clipPath>
</defs>
<rect width="1200" height="750" fill="#0a0a0b"/>
<rect width="1200" height="750" fill="url(#wash)"/>
<circle cx="660" cy="70" r="1.6" fill="#d8ff3e" opacity="0.158"/><circle cx="712" cy="70" r="1.6" fill="#d8ff3e" opacity="0.148"/><circle cx="764" cy="70" r="1.6" fill="#d8ff3e" opacity="0.127"/><circle cx="816" cy="70" r="1.6" fill="#d8ff3e" opacity="0.156"/><circle cx="868" cy="70" r="1.6" fill="#d8ff3e" opacity="0.069"/><circle cx="920" cy="70" r="1.6" fill="#d8ff3e" opacity="0.107"/><circle cx="972" cy="70" r="1.6" fill="#d8ff3e" opacity="0.084"/><circle cx="1024" cy="70" r="1.6" fill="#d8ff3e" opacity="0.069"/><circle cx="1076" cy="70" r="1.6" fill="#d8ff3e" opacity="0.076"/><circle cx="1128" cy="70" r="1.6" fill="#d8ff3e" opacity="0.117"/><circle cx="660" cy="122" r="1.6" fill="#d8ff3e" opacity="0.148"/><circle cx="712" cy="122" r="1.6" fill="#d8ff3e" opacity="0.082"/><circle cx="764" cy="122" r="1.6" fill="#d8ff3e" opacity="0.081"/><circle cx="816" cy="122" r="1.6" fill="#d8ff3e" opacity="0.123"/><circle cx="868" cy="122" r="1.6" fill="#d8ff3e" opacity="0.100"/><circle cx="920" cy="122" r="1.6" fill="#d8ff3e" opacity="0.142"/><circle cx="972" cy="122" r="1.6" fill="#d8ff3e" opacity="0.168"/><circle cx="1024" cy="122" r="1.6" fill="#d8ff3e" opacity="0.109"/><circle cx="1076" cy="122" r="1.6" fill="#d8ff3e" opacity="0.160"/><circle cx="1128" cy="122" r="1.6" fill="#d8ff3e" opacity="0.092"/><circle cx="660" cy="174" r="1.6" fill="#d8ff3e" opacity="0.119"/><circle cx="712" cy="174" r="1.6" fill="#d8ff3e" opacity="0.065"/><circle cx="764" cy="174" r="1.6" fill="#d8ff3e" opacity="0.082"/><circle cx="816" cy="174" r="1.6" fill="#d8ff3e" opacity="0.116"/><circle cx="868" cy="174" r="1.6" fill="#d8ff3e" opacity="0.154"/><circle cx="920" cy="174" r="1.6" fill="#d8ff3e" opacity="0.147"/><circle cx="972" cy="174" r="1.6" fill="#d8ff3e" opacity="0.135"/><circle cx="1024" cy="174" r="1.6" fill="#d8ff3e" opacity="0.055"/><circle cx="1076" cy="174" r="1.6" fill="#d8ff3e" opacity="0.137"/><circle cx="1128" cy="174" r="1.6" fill="#d8ff3e" opacity="0.074"/><circle cx="660" cy="226" r="1.6" fill="#d8ff3e" opacity="0.151"/><circle cx="712" cy="226" r="1.6" fill="#d8ff3e" opacity="0.056"/><circle cx="764" cy="226" r="1.6" fill="#d8ff3e" opacity="0.102"/><circle cx="816" cy="226" r="1.6" fill="#d8ff3e" opacity="0.148"/><circle cx="868" cy="226" r="1.6" fill="#d8ff3e" opacity="0.061"/><circle cx="920" cy="226" r="1.6" fill="#d8ff3e" opacity="0.068"/><circle cx="972" cy="226" r="1.6" fill="#d8ff3e" opacity="0.130"/><circle cx="1024" cy="226" r="1.6" fill="#d8ff3e" opacity="0.131"/><circle cx="1076" cy="226" r="1.6" fill="#d8ff3e" opacity="0.054"/><circle cx="1128" cy="226" r="1.6" fill="#d8ff3e" opacity="0.097"/><circle cx="660" cy="278" r="1.6" fill="#d8ff3e" opacity="0.088"/><circle cx="712" cy="278" r="1.6" fill="#d8ff3e" opacity="0.095"/><circle cx="764" cy="278" r="1.6" fill="#d8ff3e" opacity="0.145"/><circle cx="816" cy="278" r="1.6" fill="#d8ff3e" opacity="0.111"/><circle cx="868" cy="278" r="1.6" fill="#d8ff3e" opacity="0.076"/><circle cx="920" cy="278" r="1.6" fill="#d8ff3e" opacity="0.155"/><circle cx="972" cy="278" r="1.6" fill="#d8ff3e" opacity="0.096"/><circle cx="1024" cy="278" r="1.6" fill="#d8ff3e" opacity="0.131"/><circle cx="1076" cy="278" r="1.6" fill="#d8ff3e" opacity="0.120"/><circle cx="1128" cy="278" r="1.6" fill="#d8ff3e" opacity="0.128"/><circle cx="660" cy="330" r="1.6" fill="#d8ff3e" opacity="0.133"/><circle cx="712" cy="330" r="1.6" fill="#d8ff3e" opacity="0.062"/><circle cx="764" cy="330" r="1.6" fill="#d8ff3e" opacity="0.138"/><circle cx="816" cy="330" r="1.6" fill="#d8ff3e" opacity="0.161"/><circle cx="868" cy="330" r="1.6" fill="#d8ff3e" opacity="0.114"/><circle cx="920" cy="330" r="1.6" fill="#d8ff3e" opacity="0.089"/><circle cx="972" cy="330" r="1.6" fill="#d8ff3e" opacity="0.084"/><circle cx="1024" cy="330" r="1.6" fill="#d8ff3e" opacity="0.098"/><circle cx="1076" cy="330" r="1.6" fill="#d8ff3e" opacity="0.157"/><circle cx="1128" cy="330" r="1.6" fill="#d8ff3e" opacity="0.065"/><circle cx="660" cy="382" r="1.6" fill="#d8ff3e" opacity="0.055"/><circle cx="712" cy="382" r="1.6" fill="#d8ff3e" opacity="0.101"/><circle cx="764" cy="382" r="1.6" fill="#d8ff3e" opacity="0.093"/><circle cx="816" cy="382" r="1.6" fill="#d8ff3e" opacity="0.088"/><circle cx="868" cy="382" r="1.6" fill="#d8ff3e" opacity="0.073"/><circle cx="920" cy="382" r="1.6" fill="#d8ff3e" opacity="0.127"/><circle cx="972" cy="382" r="1.6" fill="#d8ff3e" opacity="0.096"/><circle cx="1024" cy="382" r="1.6" fill="#d8ff3e" opacity="0.161"/><circle cx="1076" cy="382" r="1.6" fill="#d8ff3e" opacity="0.111"/><circle cx="1128" cy="382" r="1.6" fill="#d8ff3e" opacity="0.124"/><circle cx="660" cy="434" r="1.6" fill="#d8ff3e" opacity="0.142"/><circle cx="712" cy="434" r="1.6" fill="#d8ff3e" opacity="0.099"/><circle cx="764" cy="434" r="1.6" fill="#d8ff3e" opacity="0.139"/><circle cx="816" cy="434" r="1.6" fill="#d8ff3e" opacity="0.145"/><circle cx="868" cy="434" r="1.6" fill="#d8ff3e" opacity="0.114"/><circle cx="920" cy="434" r="1.6" fill="#d8ff3e" opacity="0.166"/><circle cx="972" cy="434" r="1.6" fill="#d8ff3e" opacity="0.088"/><circle cx="1024" cy="434" r="1.6" fill="#d8ff3e" opacity="0.169"/><circle cx="1076" cy="434" r="1.6" fill="#d8ff3e" opacity="0.076"/><circle cx="1128" cy="434" r="1.6" fill="#d8ff3e" opacity="0.079"/><circle cx="660" cy="486" r="1.6" fill="#d8ff3e" opacity="0.065"/><circle cx="712" cy="486" r="1.6" fill="#d8ff3e" opacity="0.074"/><circle cx="764" cy="486" r="1.6" fill="#d8ff3e" opacity="0.063"/><circle cx="816" cy="486" r="1.6" fill="#d8ff3e" opacity="0.129"/><circle cx="868" cy="486" r="1.6" fill="#d8ff3e" opacity="0.160"/><circle cx="920" cy="486" r="1.6" fill="#d8ff3e" opacity="0.088"/><circle cx="972" cy="486" r="1.6" fill="#d8ff3e" opacity="0.161"/><circle cx="1024" cy="486" r="1.6" fill="#d8ff3e" opacity="0.106"/><circle cx="1076" cy="486" r="1.6" fill="#d8ff3e" opacity="0.124"/><circle cx="1128" cy="486" r="1.6" fill="#d8ff3e" opacity="0.072"/><circle cx="660" cy="538" r="1.6" fill="#d8ff3e" opacity="0.065"/><circle cx="712" cy="538" r="1.6" fill="#d8ff3e" opacity="0.068"/><circle cx="764" cy="538" r="1.6" fill="#d8ff3e" opacity="0.130"/><circle cx="816" cy="538" r="1.6" fill="#d8ff3e" opacity="0.058"/><circle cx="868" cy="538" r="1.6" fill="#d8ff3e" opacity="0.136"/><circle cx="920" cy="538" r="1.6" fill="#d8ff3e" opacity="0.137"/><circle cx="972" cy="538" r="1.6" fill="#d8ff3e" opacity="0.056"/><circle cx="1024" cy="538" r="1.6" fill="#d8ff3e" opacity="0.099"/><circle cx="1076" cy="538" r="1.6" fill="#d8ff3e" opacity="0.084"/><circle cx="1128" cy="538" r="1.6" fill="#d8ff3e" opacity="0.062"/><circle cx="660" cy="590" r="1.6" fill="#d8ff3e" opacity="0.134"/><circle cx="712" cy="590" r="1.6" fill="#d8ff3e" opacity="0.097"/><circle cx="764" cy="590" r="1.6" fill="#d8ff3e" opacity="0.124"/><circle cx="816" cy="590" r="1.6" fill="#d8ff3e" opacity="0.123"/><circle cx="868" cy="590" r="1.6" fill="#d8ff3e" opacity="0.109"/><circle cx="920" cy="590" r="1.6" fill="#d8ff3e" opacity="0.150"/><circle cx="972" cy="590" r="1.6" fill="#d8ff3e" opacity="0.068"/><circle cx="1024" cy="590" r="1.6" fill="#d8ff3e" opacity="0.085"/><circle cx="1076" cy="590" r="1.6" fill="#d8ff3e" opacity="0.159"/><circle cx="1128" cy="590" r="1.6" fill="#d8ff3e" opacity="0.096"/><circle cx="660" cy="642" r="1.6" fill="#d8ff3e" opacity="0.062"/><circle cx="712" cy="642" r="1.6" fill="#d8ff3e" opacity="0.114"/><circle cx="764" cy="642" r="1.6" fill="#d8ff3e" opacity="0.065"/><circle cx="816" cy="642" r="1.6" fill="#d8ff3e" opacity="0.165"/><circle cx="868" cy="642" r="1.6" fill="#d8ff3e" opacity="0.170"/><circle cx="920" cy="642" r="1.6" fill="#d8ff3e" opacity="0.082"/><circle cx="972" cy="642" r="1.6" fill="#d8ff3e" opacity="0.070"/><circle cx="1024" cy="642" r="1.6" fill="#d8ff3e" opacity="0.162"/><circle cx="1076" cy="642" r="1.6" fill="#d8ff3e" opacity="0.054"/><circle cx="1128" cy="642" r="1.6" fill="#d8ff3e" opacity="0.123"/>
<g transform="translate(620,330) rotate(-8)">
  <ellipse cx="270" cy="268" rx="290" ry="42" fill="url(#floor)"/>
  <path d="M26,206 C10,162 30,110 90,82 C158,50 248,46 326,70 C404,94 470,138 492,180 C506,208 496,232 460,238 L76,244 C42,244 34,228 26,206 Z" fill="#16161a" stroke="#d8ff3e" stroke-width="3"/>
  <g clip-path="url(#shoeclip)"></g>
  <ellipse cx="150" cy="118" rx="30" ry="21" fill="#0a0a0b" stroke="#d8ff3e" stroke-width="2" opacity="0.95" transform="rotate(-18 150 118)"/><ellipse cx="236" cy="96" rx="32" ry="23" fill="#0a0a0b" stroke="#d8ff3e" stroke-width="2" opacity="0.95" transform="rotate(-6 236 96)"/><ellipse cx="318" cy="108" rx="27" ry="19" fill="#0a0a0b" stroke="#d8ff3e" stroke-width="2" opacity="0.95" transform="rotate(10 318 108)"/><ellipse cx="196" cy="172" rx="25" ry="17" fill="#0a0a0b" stroke="#d8ff3e" stroke-width="2" opacity="0.95" transform="rotate(-12 196 172)"/><ellipse cx="298" cy="168" rx="29" ry="19" fill="#0a0a0b" stroke="#d8ff3e" stroke-width="2" opacity="0.95" transform="rotate(4 298 168)"/><ellipse cx="392" cy="150" rx="24" ry="16" fill="#0a0a0b" stroke="#d8ff3e" stroke-width="2" opacity="0.95" transform="rotate(14 392 150)"/>
</g>
<g font-family="ui-monospace, monospace">
  <rect x="60" y="64" rx="17" height="34" width="130" fill="#d8ff3e"/>
  <text x="125" y="87" fill="#0a0a0b" font-size="19" letter-spacing="4" font-weight="700" text-anchor="middle">SIZING</text>
</g>
<g font-family="system-ui, sans-serif" font-weight="800" fill="#f4f4f1" letter-spacing="-1">
  <text x="62" y="300" font-size="58">YEEZY FOAM</text>
  <text x="62" y="370" font-size="58">RUNNER SIZING -</text>
  <text x="62" y="440" font-size="58">DO THEY RUN BIG…</text>
</g>
<line x1="62" y1="632" x2="342" y2="632" stroke="#d8ff3e" stroke-width="3"/>
<g font-family="ui-monospace, monospace">
  <text x="62" y="676" fill="#f4f4f1" font-size="30" font-weight="800" letter-spacing="1" font-family="system-ui, sans-serif">KICKS ON DECK</text>
  <text x="62" y="708" fill="#9a9aa0" font-size="19" letter-spacing="4">KICKSONDECK.STORE</text>
</g>
<rect width="1200" height="750" filter="url(#grain)" opacity="0.55"/>
</svg>