<svg xmlns="http://www.w3.org/2000/svg" viewBox="0 0 1200 750" width="1200" height="750" role="img" aria-label="Yeezy 350 V2 &amp; Foam Runner Restocks — How Drops Actually Work">
<defs>
<radialGradient id="glow" cx="80.2%" cy="27.5%" r="60%"><stop offset="0%" stop-color="#d8ff3e" stop-opacity="0.30"/><stop offset="45%" stop-color="#d8ff3e" stop-opacity="0.05"/><stop offset="100%" stop-color="#d8ff3e" stop-opacity="0"/></radialGradient>
<filter id="grain"><feTurbulence type="fractalNoise" baseFrequency="0.9" numOctaves="2" stitchTiles="stitch"/><feColorMatrix type="saturate" values="0"/><feComponentTransfer><feFuncA type="linear" slope="0.05"/></feComponentTransfer></filter>
<linearGradient id="vig" x1="0" y1="0" x2="0" y2="1"><stop offset="0%" stop-color="#000" stop-opacity="0"/><stop offset="100%" stop-color="#000" stop-opacity="0.55"/></linearGradient>
</defs>
<rect width="1200" height="750" fill="#0a0a0b"/>
<rect width="1200" height="750" fill="url(#glow)"/>
<circle cx="566" cy="60" r="1.1" fill="#d8ff3e" opacity="0.031"/><circle cx="612" cy="60" r="1.2" fill="#d8ff3e" opacity="0.079"/><circle cx="658" cy="60" r="1.3" fill="#d8ff3e" opacity="0.125"/><circle cx="704" cy="60" r="1.4" fill="#d8ff3e" opacity="0.171"/><circle cx="750" cy="60" r="1.5" fill="#d8ff3e" opacity="0.214"/><circle cx="796" cy="60" r="1.6" fill="#d8ff3e" opacity="0.254"/><circle cx="842" cy="60" r="1.7" fill="#d8ff3e" opacity="0.290"/><circle cx="888" cy="60" r="1.8" fill="#d8ff3e" opacity="0.318"/><circle cx="934" cy="60" r="1.8" fill="#d8ff3e" opacity="0.335"/><circle cx="980" cy="60" r="1.8" fill="#d8ff3e" opacity="0.337"/><circle cx="1026" cy="60" r="1.8" fill="#d8ff3e" opacity="0.323"/><circle cx="1072" cy="60" r="1.7" fill="#d8ff3e" opacity="0.297"/><circle cx="1118" cy="60" r="1.7" fill="#d8ff3e" opacity="0.263"/><circle cx="1164" cy="60" r="1.6" fill="#d8ff3e" opacity="0.223"/><circle cx="566" cy="106" r="1.1" fill="#d8ff3e" opacity="0.046"/><circle cx="612" cy="106" r="1.2" fill="#d8ff3e" opacity="0.096"/><circle cx="658" cy="106" r="1.4" fill="#d8ff3e" opacity="0.144"/><circle cx="704" cy="106" r="1.5" fill="#d8ff3e" opacity="0.193"/><circle cx="750" cy="106" r="1.6" fill="#d8ff3e" opacity="0.240"/><circle cx="796" cy="106" r="1.7" fill="#d8ff3e" opacity="0.285"/><circle cx="842" cy="106" r="1.8" fill="#d8ff3e" opacity="0.326"/><circle cx="888" cy="106" r="1.9" fill="#d8ff3e" opacity="0.362"/><circle cx="934" cy="106" r="2.0" fill="#d8ff3e" opacity="0.385"/><circle cx="980" cy="106" r="2.0" fill="#d8ff3e" opacity="0.387"/><circle cx="1026" cy="106" r="1.9" fill="#d8ff3e" opacity="0.368"/><circle cx="1072" cy="106" r="1.8" fill="#d8ff3e" opacity="0.335"/><circle cx="1118" cy="106" r="1.7" fill="#d8ff3e" opacity="0.294"/><circle cx="1164" cy="106" r="1.6" fill="#d8ff3e" opacity="0.250"/><circle cx="566" cy="152" r="1.1" fill="#d8ff3e" opacity="0.056"/><circle cx="612" cy="152" r="1.3" fill="#d8ff3e" opacity="0.107"/><circle cx="658" cy="152" r="1.4" fill="#d8ff3e" opacity="0.157"/><circle cx="704" cy="152" r="1.5" fill="#d8ff3e" opacity="0.207"/><circle cx="750" cy="152" r="1.6" fill="#d8ff3e" opacity="0.257"/><circle cx="796" cy="152" r="1.8" fill="#d8ff3e" opacity="0.306"/><circle cx="842" cy="152" r="1.9" fill="#d8ff3e" opacity="0.354"/><circle cx="888" cy="152" r="2.0" fill="#d8ff3e" opacity="0.398"/><circle cx="934" cy="152" r="2.1" fill="#d8ff3e" opacity="0.432"/><circle cx="980" cy="152" r="2.1" fill="#d8ff3e" opacity="0.437"/><circle cx="1026" cy="152" r="2.0" fill="#d8ff3e" opacity="0.407"/><circle cx="1072" cy="152" r="1.9" fill="#d8ff3e" opacity="0.364"/><circle cx="1118" cy="152" r="1.8" fill="#d8ff3e" opacity="0.317"/><circle cx="1164" cy="152" r="1.7" fill="#d8ff3e" opacity="0.268"/><circle cx="566" cy="198" r="1.1" fill="#d8ff3e" opacity="0.060"/><circle cx="612" cy="198" r="1.3" fill="#d8ff3e" opacity="0.111"/><circle cx="658" cy="198" r="1.4" fill="#d8ff3e" opacity="0.162"/><circle cx="704" cy="198" r="1.5" fill="#d8ff3e" opacity="0.213"/><circle cx="750" cy="198" r="1.7" fill="#d8ff3e" opacity="0.264"/><circle cx="796" cy="198" r="1.8" fill="#d8ff3e" opacity="0.315"/><circle cx="842" cy="198" r="1.9" fill="#d8ff3e" opacity="0.366"/><circle cx="888" cy="198" r="2.0" fill="#d8ff3e" opacity="0.417"/><circle cx="934" cy="198" r="2.2" fill="#d8ff3e" opacity="0.468"/><circle cx="980" cy="198" r="2.2" fill="#d8ff3e" opacity="0.478"/><circle cx="1026" cy="198" r="2.1" fill="#d8ff3e" opacity="0.428"/><circle cx="1072" cy="198" r="1.9" fill="#d8ff3e" opacity="0.377"/><circle cx="1118" cy="198" r="1.8" fill="#d8ff3e" opacity="0.326"/><circle cx="1164" cy="198" r="1.7" fill="#d8ff3e" opacity="0.275"/><circle cx="566" cy="244" r="1.1" fill="#d8ff3e" opacity="0.058"/><circle cx="612" cy="244" r="1.3" fill="#d8ff3e" opacity="0.109"/><circle cx="658" cy="244" r="1.4" fill="#d8ff3e" opacity="0.160"/><circle cx="704" cy="244" r="1.5" fill="#d8ff3e" opacity="0.210"/><circle cx="750" cy="244" r="1.7" fill="#d8ff3e" opacity="0.261"/><circle cx="796" cy="244" r="1.8" fill="#d8ff3e" opacity="0.311"/><circle cx="842" cy="244" r="1.9" fill="#d8ff3e" opacity="0.360"/><circle cx="888" cy="244" r="2.0" fill="#d8ff3e" opacity="0.408"/><circle cx="934" cy="244" r="2.1" fill="#d8ff3e" opacity="0.448"/><circle cx="980" cy="244" r="2.1" fill="#d8ff3e" opacity="0.453"/><circle cx="1026" cy="244" r="2.0" fill="#d8ff3e" opacity="0.417"/><circle cx="1072" cy="244" r="1.9" fill="#d8ff3e" opacity="0.371"/><circle cx="1118" cy="244" r="1.8" fill="#d8ff3e" opacity="0.322"/><circle cx="1164" cy="244" r="1.7" fill="#d8ff3e" opacity="0.272"/><circle cx="566" cy="290" r="1.1" fill="#d8ff3e" opacity="0.050"/><circle cx="612" cy="290" r="1.3" fill="#d8ff3e" opacity="0.100"/><circle cx="658" cy="290" r="1.4" fill="#d8ff3e" opacity="0.150"/><circle cx="704" cy="290" r="1.5" fill="#d8ff3e" opacity="0.199"/><circle cx="750" cy="290" r="1.6" fill="#d8ff3e" opacity="0.247"/><circle cx="796" cy="290" r="1.7" fill="#d8ff3e" opacity="0.293"/><circle cx="842" cy="290" r="1.8" fill="#d8ff3e" opacity="0.337"/><circle cx="888" cy="290" r="1.9" fill="#d8ff3e" opacity="0.376"/><circle cx="934" cy="290" r="2.0" fill="#d8ff3e" opacity="0.402"/><circle cx="980" cy="290" r="2.0" fill="#d8ff3e" opacity="0.405"/><circle cx="1026" cy="290" r="2.0" fill="#d8ff3e" opacity="0.383"/><circle cx="1072" cy="290" r="1.9" fill="#d8ff3e" opacity="0.346"/><circle cx="1118" cy="290" r="1.8" fill="#d8ff3e" opacity="0.303"/><circle cx="1164" cy="290" r="1.6" fill="#d8ff3e" opacity="0.257"/><circle cx="566" cy="336" r="1.1" fill="#d8ff3e" opacity="0.037"/><circle cx="612" cy="336" r="1.2" fill="#d8ff3e" opacity="0.085"/><circle cx="658" cy="336" r="1.3" fill="#d8ff3e" opacity="0.133"/><circle cx="704" cy="336" r="1.4" fill="#d8ff3e" opacity="0.179"/><circle cx="750" cy="336" r="1.6" fill="#d8ff3e" opacity="0.224"/><circle cx="796" cy="336" r="1.7" fill="#d8ff3e" opacity="0.266"/><circle cx="842" cy="336" r="1.8" fill="#d8ff3e" opacity="0.303"/><circle cx="888" cy="336" r="1.8" fill="#d8ff3e" opacity="0.334"/><circle cx="934" cy="336" r="1.9" fill="#d8ff3e" opacity="0.352"/><circle cx="980" cy="336" r="1.9" fill="#d8ff3e" opacity="0.354"/><circle cx="1026" cy="336" r="1.8" fill="#d8ff3e" opacity="0.339"/><circle cx="1072" cy="336" r="1.8" fill="#d8ff3e" opacity="0.311"/><circle cx="1118" cy="336" r="1.7" fill="#d8ff3e" opacity="0.274"/><circle cx="1164" cy="336" r="1.6" fill="#d8ff3e" opacity="0.233"/><circle cx="612" cy="382" r="1.2" fill="#d8ff3e" opacity="0.065"/><circle cx="658" cy="382" r="1.3" fill="#d8ff3e" opacity="0.110"/><circle cx="704" cy="382" r="1.4" fill="#d8ff3e" opacity="0.153"/><circle cx="750" cy="382" r="1.5" fill="#d8ff3e" opacity="0.194"/><circle cx="796" cy="382" r="1.6" fill="#d8ff3e" opacity="0.231"/><circle cx="842" cy="382" r="1.7" fill="#d8ff3e" opacity="0.263"/><circle cx="888" cy="382" r="1.7" fill="#d8ff3e" opacity="0.288"/><circle cx="934" cy="382" r="1.8" fill="#d8ff3e" opacity="0.302"/><circle cx="980" cy="382" r="1.8" fill="#d8ff3e" opacity="0.303"/><circle cx="1026" cy="382" r="1.7" fill="#d8ff3e" opacity="0.292"/><circle cx="1072" cy="382" r="1.7" fill="#d8ff3e" opacity="0.269"/><circle cx="1118" cy="382" r="1.6" fill="#d8ff3e" opacity="0.239"/><circle cx="1164" cy="382" r="1.5" fill="#d8ff3e" opacity="0.202"/><circle cx="612" cy="428" r="1.1" fill="#d8ff3e" opacity="0.039"/><circle cx="658" cy="428" r="1.2" fill="#d8ff3e" opacity="0.082"/><circle cx="704" cy="428" r="1.3" fill="#d8ff3e" opacity="0.122"/><circle cx="750" cy="428" r="1.4" fill="#d8ff3e" opacity="0.159"/><circle cx="796" cy="428" r="1.5" fill="#d8ff3e" opacity="0.192"/><circle cx="842" cy="428" r="1.5" fill="#d8ff3e" opacity="0.220"/><circle cx="888" cy="428" r="1.6" fill="#d8ff3e" opacity="0.240"/><circle cx="934" cy="428" r="1.6" fill="#d8ff3e" opacity="0.251"/><circle cx="980" cy="428" r="1.6" fill="#d8ff3e" opacity="0.253"/><circle cx="1026" cy="428" r="1.6" fill="#d8ff3e" opacity="0.243"/><circle cx="1072" cy="428" r="1.6" fill="#d8ff3e" opacity="0.225"/><circle cx="1118" cy="428" r="1.5" fill="#d8ff3e" opacity="0.199"/><circle cx="1164" cy="428" r="1.4" fill="#d8ff3e" opacity="0.167"/><circle cx="658" cy="474" r="1.1" fill="#d8ff3e" opacity="0.050"/><circle cx="704" cy="474" r="1.2" fill="#d8ff3e" opacity="0.087"/><circle cx="750" cy="474" r="1.3" fill="#d8ff3e" opacity="0.120"/><circle cx="796" cy="474" r="1.4" fill="#d8ff3e" opacity="0.150"/><circle cx="842" cy="474" r="1.4" fill="#d8ff3e" opacity="0.174"/><circle cx="888" cy="474" r="1.5" fill="#d8ff3e" opacity="0.191"/><circle cx="934" cy="474" r="1.5" fill="#d8ff3e" opacity="0.201"/><circle cx="980" cy="474" r="1.5" fill="#d8ff3e" opacity="0.202"/><circle cx="1026" cy="474" r="1.5" fill="#d8ff3e" opacity="0.194"/><circle cx="1072" cy="474" r="1.4" fill="#d8ff3e" opacity="0.178"/><circle cx="1118" cy="474" r="1.4" fill="#d8ff3e" opacity="0.155"/><circle cx="1164" cy="474" r="1.3" fill="#d8ff3e" opacity="0.127"/><circle cx="704" cy="520" r="1.1" fill="#d8ff3e" opacity="0.048"/><circle cx="750" cy="520" r="1.2" fill="#d8ff3e" opacity="0.079"/><circle cx="796" cy="520" r="1.3" fill="#d8ff3e" opacity="0.105"/><circle cx="842" cy="520" r="1.3" fill="#d8ff3e" opacity="0.127"/><circle cx="888" cy="520" r="1.4" fill="#d8ff3e" opacity="0.142"/><circle cx="934" cy="520" r="1.4" fill="#d8ff3e" opacity="0.150"/><circle cx="980" cy="520" r="1.4" fill="#d8ff3e" opacity="0.151"/><circle cx="1026" cy="520" r="1.4" fill="#d8ff3e" opacity="0.144"/><circle cx="1072" cy="520" r="1.3" fill="#d8ff3e" opacity="0.130"/><circle cx="1118" cy="520" r="1.3" fill="#d8ff3e" opacity="0.110"/><circle cx="1164" cy="520" r="1.2" fill="#d8ff3e" opacity="0.085"/><circle cx="750" cy="566" r="1.1" fill="#d8ff3e" opacity="0.036"/><circle cx="796" cy="566" r="1.1" fill="#d8ff3e" opacity="0.060"/><circle cx="842" cy="566" r="1.2" fill="#d8ff3e" opacity="0.078"/><circle cx="888" cy="566" r="1.2" fill="#d8ff3e" opacity="0.092"/><circle cx="934" cy="566" r="1.2" fill="#d8ff3e" opacity="0.099"/><circle cx="980" cy="566" r="1.2" fill="#d8ff3e" opacity="0.100"/><circle cx="1026" cy="566" r="1.2" fill="#d8ff3e" opacity="0.094"/><circle cx="1072" cy="566" r="1.2" fill="#d8ff3e" opacity="0.082"/><circle cx="1118" cy="566" r="1.2" fill="#d8ff3e" opacity="0.064"/><circle cx="1164" cy="566" r="1.1" fill="#d8ff3e" opacity="0.041"/><circle cx="842" cy="612" r="1.1" fill="#d8ff3e" opacity="0.030"/><circle cx="888" cy="612" r="1.1" fill="#d8ff3e" opacity="0.041"/><circle cx="934" cy="612" r="1.1" fill="#d8ff3e" opacity="0.048"/><circle cx="980" cy="612" r="1.1" fill="#d8ff3e" opacity="0.048"/><circle cx="1026" cy="612" r="1.1" fill="#d8ff3e" opacity="0.043"/><circle cx="1072" cy="612" r="1.1" fill="#d8ff3e" opacity="0.033"/>
<rect width="1200" height="750" fill="url(#vig)"/>
<rect width="1200" height="750" filter="url(#grain)" opacity="0.6"/>
<g font-family="ui-monospace, monospace">
<text x="64" y="88" fill="#d8ff3e" font-size="26" letter-spacing="6" font-weight="700">EXPLAINERS</text>
<text x="64" y="642" fill="#f4f4f1" font-size="66" font-weight="800" letter-spacing="-1" font-family="system-ui, sans-serif">KICKS ON DECK</text>
<text x="64" y="688" fill="#9a9aa0" font-size="22" letter-spacing="4">kicksondeck.store</text>
</g>
</svg>